G04*
G04 #@! TF.GenerationSoftware,Altium Limited,Altium Designer,24.10.1 (45)*
G04*
G04 Layer_Physical_Order=2*
G04 Layer_Color=16711680*
%FSLAX25Y25*%
%MOIN*%
G70*
G04*
G04 #@! TF.SameCoordinates,3C39243C-CA6B-4253-8BA6-19DEFFBB94D5*
G04*
G04*
G04 #@! TF.FilePolarity,Positive*
G04*
G01*
G75*
%ADD10C,0.01000*%
%ADD12C,0.00787*%
%ADD36C,0.01968*%
%ADD39C,0.06000*%
%ADD40C,0.10000*%
%ADD41C,0.02600*%
%ADD42C,0.02598*%
%ADD43C,0.05000*%
%ADD44C,0.00591*%
D10*
X682000Y58000D02*
Y61500D01*
Y58000D02*
X685500D01*
X682000Y54500D02*
Y58000D01*
X678500D02*
X682000D01*
X161000Y22500D02*
X163300D01*
X161000D02*
Y24800D01*
X158700Y22500D02*
X161000D01*
Y20200D02*
Y22500D01*
X24000Y59043D02*
X27500D01*
X24000D02*
Y62543D01*
Y55543D02*
Y59043D01*
X20500D02*
X24000D01*
X143000Y44500D02*
X146500D01*
X143000D02*
Y48000D01*
X139500Y44500D02*
X143000D01*
Y41000D02*
Y44500D01*
X133500Y54500D02*
X137000D01*
X133500D02*
Y58000D01*
Y51000D02*
Y54500D01*
X130000D02*
X133500D01*
X122000Y40000D02*
X124300D01*
X119700D02*
X122000D01*
Y42300D01*
Y37700D02*
Y40000D01*
X242961Y44299D02*
X245261D01*
X242961D02*
Y46599D01*
Y41999D02*
Y44299D01*
X240661D02*
X242961D01*
X226500Y55000D02*
X230000D01*
X226500D02*
Y58500D01*
Y51500D02*
Y55000D01*
X223000D02*
X226500D01*
X215500Y39500D02*
X217800D01*
X215500D02*
Y41800D01*
Y37200D02*
Y39500D01*
X213200D02*
X215500D01*
X607445Y45087D02*
X609744D01*
X607445D02*
Y47386D01*
Y42787D02*
Y45087D01*
X605146D02*
X607445D01*
X592500Y55500D02*
X596000D01*
X592500Y52000D02*
Y55500D01*
Y59000D01*
X589000Y55500D02*
X592500D01*
X581500Y41000D02*
Y43300D01*
Y41000D02*
X583800D01*
X581500Y38700D02*
Y41000D01*
X579200D02*
X581500D01*
X507000Y44500D02*
X510500D01*
X507000Y41000D02*
Y44500D01*
Y48000D01*
X497500Y55500D02*
X501000D01*
X497500Y52000D02*
Y55500D01*
Y59000D01*
X494000Y55500D02*
X497500D01*
X484460Y41000D02*
X486760D01*
X484460Y38700D02*
Y41000D01*
Y43300D01*
X482160Y41000D02*
X484460D01*
X373000Y77500D02*
X376500D01*
X373000Y74000D02*
Y77500D01*
Y81000D01*
X369500Y77500D02*
X373000D01*
X356000Y76500D02*
X359500D01*
X356000Y73000D02*
Y76500D01*
Y80000D01*
X352500Y76500D02*
X356000D01*
X343500Y44500D02*
X345800D01*
X343500Y42200D02*
Y44500D01*
X341200D02*
X343500D01*
Y46800D01*
X403700Y94000D02*
X406000D01*
Y96300D01*
Y94000D02*
X408300D01*
X406000Y91700D02*
Y94000D01*
X692586Y59000D02*
X696086D01*
X692586D02*
Y62500D01*
Y55500D02*
Y59000D01*
X689086D02*
X692586D01*
X326000Y94500D02*
X328300D01*
X326000Y92200D02*
Y94500D01*
Y96800D01*
X323700Y94500D02*
X326000D01*
X13914Y59500D02*
X17414D01*
X13914Y56000D02*
Y59500D01*
Y63000D01*
X10414Y59500D02*
X13914D01*
X324213Y71500D02*
X336511D01*
X323226D02*
X324213D01*
X401500Y73500D02*
Y80500D01*
X394000Y74500D02*
Y80500D01*
X374500Y55000D02*
X394000Y74500D01*
X339500Y62500D02*
X339833D01*
X342000Y64667D02*
Y84000D01*
X339833Y62500D02*
X342000Y64667D01*
X320671Y78671D02*
X326000Y84000D01*
X320671Y70441D02*
Y78671D01*
X143000Y44500D02*
X156500D01*
X171000Y59000D01*
X484500Y80909D02*
Y98500D01*
Y80668D02*
X484741Y80909D01*
X484500Y72500D02*
Y80668D01*
X310500Y37000D02*
Y52567D01*
X309500Y53567D02*
X310500Y52567D01*
X309500Y53567D02*
Y54000D01*
X105795Y88000D02*
X113000D01*
X105795D02*
X105795D01*
X90087Y88500D02*
X90587Y88000D01*
X105795D01*
X68106Y88500D02*
X90087D01*
X161000Y69000D02*
X171500Y79500D01*
Y83500D01*
X248910Y88544D02*
X288630D01*
X248866Y88587D02*
X248910Y88544D01*
X288630D02*
X317956D01*
X288630D02*
X288630D01*
X317956D02*
X318000Y88500D01*
X308056Y68373D02*
X322385Y54043D01*
Y52115D02*
X336500Y38000D01*
X322385Y52115D02*
Y54043D01*
X477500Y65500D02*
X484500Y72500D01*
X565500Y76500D02*
Y81000D01*
X548398Y59398D02*
X565500Y76500D01*
X528750Y88250D02*
X574317D01*
X528500Y88500D02*
X528750Y88250D01*
X393300Y55200D02*
X395800D01*
X398500Y52500D01*
X393000Y55500D02*
X393300Y55200D01*
X374943Y46943D02*
X401500Y73500D01*
X398500Y35784D02*
Y52500D01*
X198000Y31500D02*
X207833D01*
X191000Y38500D02*
Y69000D01*
Y38500D02*
X198000Y31500D01*
X164750Y88250D02*
X177250D01*
X181000Y84500D01*
Y69000D02*
Y84500D01*
X148886Y31500D02*
X198000D01*
X147500Y31000D02*
X147806Y31306D01*
X148692D01*
X207833Y31500D02*
X209833Y33500D01*
X148692Y31306D02*
X148886Y31500D01*
X209833Y33500D02*
X210000D01*
X177250Y88250D02*
X204750D01*
X164500Y88500D02*
X164750Y88250D01*
X204750D02*
X205000Y88000D01*
X106295Y31500D02*
X115000D01*
X105795Y31000D02*
X106295Y31500D01*
X247685Y30913D02*
X248031D01*
X249071Y29874D01*
X281681D01*
X632071Y89000D02*
X643847D01*
X649571Y83276D01*
X644530Y30500D02*
X645721Y31692D01*
Y33363D02*
X646028Y33669D01*
X645721Y31692D02*
Y33363D01*
X63960Y30707D02*
X64667Y30000D01*
X63960Y30707D02*
Y31371D01*
X62882Y32449D02*
X63960Y31371D01*
X64667Y30000D02*
X92783D01*
X62882Y32449D02*
Y32882D01*
X63669Y84063D02*
X68106Y88500D01*
X92783Y30000D02*
X93783Y31000D01*
X105795D01*
X372886Y30126D02*
X476693D01*
X371500Y30500D02*
X371806Y30194D01*
X372818D01*
X372886Y30126D01*
X477067Y30500D02*
X477500D01*
X476693Y30126D02*
X477067Y30500D01*
X630677Y87606D02*
X632071Y89000D01*
X618469Y87606D02*
X630677D01*
X512000Y30500D02*
X512250Y30750D01*
X565750D01*
X566000Y31000D01*
X596500Y30500D02*
X644530D01*
X574317Y88250D02*
X574567Y88000D01*
X371500Y59000D02*
X378500Y66000D01*
X371500Y30500D02*
Y59000D01*
X376000Y88000D02*
X414097D01*
X415097Y89000D01*
X479000D01*
X288639Y30000D02*
X289139Y30500D01*
X332500D01*
X336500Y38000D02*
X348500D01*
X334000Y84385D02*
Y99500D01*
X337000Y77000D02*
Y81385D01*
X334000Y84385D02*
X337000Y81385D01*
X337500Y53500D02*
Y53612D01*
X320671Y70441D02*
X337500Y53612D01*
X336511Y71500D02*
X338011Y70000D01*
X338444D01*
X580000Y24000D02*
X580407Y24408D01*
X580707Y84824D02*
Y97793D01*
X580500Y98000D02*
X580707Y97793D01*
X573500Y67000D02*
X580707Y74207D01*
Y84824D01*
X496922Y54922D02*
X497500Y55500D01*
X288630Y30000D02*
X288639Y30000D01*
X288630Y30000D02*
X288630D01*
X288621Y30000D02*
X288630Y30000D01*
X281681Y29874D02*
X288621Y30000D01*
X227000Y26385D02*
Y27500D01*
X213500Y86000D02*
Y92500D01*
X214500Y71000D02*
Y85000D01*
X213500Y86000D02*
X214500Y85000D01*
X205500Y62000D02*
X214500Y71000D01*
X205500Y62000D02*
X206000D01*
X117642Y67142D02*
X118642D01*
X113500Y63000D02*
X117642Y67142D01*
X118642D02*
X123000Y71500D01*
Y96914D01*
X123586Y97500D01*
X124500D01*
D12*
X685524Y61633D02*
G03*
X686000Y61000I1430J580D01*
G01*
X685525Y61631D02*
G03*
X686000Y61000I1429J582D01*
G01*
X685524Y61633D02*
G03*
X686000Y61000I1430J580D01*
G01*
X686004Y60883D02*
G03*
X686114Y60183I1539J-117D01*
G01*
X685894Y58000D02*
G03*
X685894Y58000I-3894J0D01*
G01*
X596294Y28059D02*
G03*
X596706Y28059I206J2441D01*
G01*
X511794D02*
G03*
X512206Y28059I206J2441D01*
G01*
X477294D02*
G03*
X477706Y28059I206J2441D01*
G01*
X371294D02*
G03*
X371706Y28059I206J2441D01*
G01*
X332294D02*
G03*
X332706Y28059I206J2441D01*
G01*
X163694Y22500D02*
G03*
X163694Y22500I-2694J0D01*
G01*
X20907Y61820D02*
G03*
X21000Y62349I-1450J529D01*
G01*
X20907Y61820D02*
G03*
X21000Y62349I-1450J529D01*
G01*
X27894Y59043D02*
G03*
X20556Y60859I-3894J0D01*
G01*
X20196Y59872D02*
G03*
X27894Y59043I3804J-829D01*
G01*
X18313Y54807D02*
G03*
X18450Y55089I-1313J811D01*
G01*
X18313Y54807D02*
G03*
X18450Y55089I-1313J811D01*
G01*
X480339Y91051D02*
G03*
X477661Y91051I-1339J-2051D01*
G01*
X408694Y94000D02*
G03*
X408694Y94000I-2694J0D01*
G01*
X696480Y59000D02*
G03*
X696480Y59000I-3894J0D01*
G01*
X687543Y61000D02*
G03*
X686954Y62213I-1543J0D01*
G01*
X687543Y61000D02*
G03*
X686954Y62213I-1543J0D01*
G01*
X328694Y94500D02*
G03*
X328694Y94500I-2694J0D01*
G01*
X20395Y64920D02*
G03*
X19457Y63500I605J-1420D01*
G01*
X20395Y64920D02*
G03*
X19457Y63500I605J-1420D01*
G01*
X14217Y55618D02*
G03*
X17808Y59500I-303J3882D01*
G01*
D02*
G03*
X13611Y55618I-3894J0D01*
G01*
X685844Y58623D02*
X686487Y59266D01*
X685611Y59456D02*
X686958Y58110D01*
X685374Y62000D02*
X685524Y61633D01*
X683556Y61569D02*
X683987Y62000D01*
X683067D02*
X683456Y61611D01*
X685039Y60435D02*
X685796Y61193D01*
X684669Y55165D02*
X690215Y49618D01*
X688211Y55030D02*
X696000Y34000D01*
X682984Y54233D02*
X691755Y45462D01*
X686059Y48371D02*
X689429Y51741D01*
X686172Y45867D02*
X690136Y49832D01*
X684129Y49058D02*
X688722Y53651D01*
X686114Y60183D02*
X688211Y55030D01*
X685691Y56760D02*
X688676Y53774D01*
X685000Y49058D02*
X685449Y48969D01*
X678813Y62000D02*
X685374D01*
X680451D02*
X680760Y61691D01*
X678701Y49058D02*
X685000D01*
X675417Y56567D02*
X682925Y49058D01*
X678436Y61398D02*
X679165Y60669D01*
X677430Y59787D02*
X678233Y58984D01*
X674550Y55180D02*
X678195Y58824D01*
X676423Y58177D02*
X678761Y55839D01*
X674410Y54956D02*
X680308Y49058D01*
X678896D02*
X687244Y57406D01*
X681512Y49058D02*
X688001Y55546D01*
X657599Y28059D02*
X678813Y62000D01*
X679839Y54761D02*
X693294Y41306D01*
X665827Y41223D02*
X679565Y54961D01*
X661466Y34245D02*
X681377Y54156D01*
X673404Y53346D02*
X677970Y48780D01*
X672397Y51736D02*
X677529Y46604D01*
X670188Y48201D02*
X678431Y56444D01*
X678252Y48969D02*
X678701Y49058D01*
X671391Y50125D02*
X677529Y43987D01*
X686083Y48334D02*
X686172Y47886D01*
Y43250D02*
X690844Y47922D01*
X685829Y48715D02*
X686083Y48334D01*
X686172Y41390D02*
Y47886D01*
X686083Y40941D02*
X686172Y41390D01*
X685829Y40561D02*
X686083Y40941D01*
X677872Y48715D02*
X678252Y48969D01*
X685449D02*
X685829Y48715D01*
X677618Y48334D02*
X677872Y48715D01*
Y40561D02*
X678252Y40307D01*
X677618Y40941D02*
X677872Y40561D01*
X686172Y45811D02*
X694833Y37150D01*
X686172Y43194D02*
X695833Y33533D01*
X685973Y40777D02*
X695145Y31605D01*
X683915Y40218D02*
X694456Y29677D01*
X686000Y6000D02*
X696000Y34000D01*
X681298Y40218D02*
X693767Y27749D01*
X685449Y40307D02*
X685829Y40561D01*
X685000Y40218D02*
X685449Y40307D01*
X678252D02*
X678701Y40218D01*
X685000D01*
X678677Y40222D02*
X693079Y25820D01*
X677529Y47886D02*
X677618Y48334D01*
X669378Y46904D02*
X692390Y23892D01*
X668371Y45294D02*
X691701Y21964D01*
X677529Y41390D02*
X677618Y40941D01*
X667365Y43684D02*
X691013Y20036D01*
X666358Y42073D02*
X690324Y18108D01*
X677529Y41390D02*
Y47886D01*
X670384Y48515D02*
X677533Y41365D01*
X512206Y28059D02*
X596294D01*
X596706D02*
X657599D01*
X665352Y40463D02*
X689635Y16179D01*
X664345Y38853D02*
X688947Y14251D01*
X663339Y37242D02*
X688258Y12323D01*
X662332Y35632D02*
X687570Y10395D01*
X661326Y34022D02*
X686881Y8467D01*
X660320Y32412D02*
X686193Y6539D01*
X659313Y30801D02*
X685057Y5057D01*
X658307Y29191D02*
X683749Y3749D01*
X554332Y3000D02*
X579391Y28059D01*
X552148D02*
X577207Y3000D01*
X478876Y28059D02*
X503935Y3000D01*
X481060D02*
X506119Y28059D01*
X478443Y3000D02*
X503502Y28059D01*
X481493D02*
X506552Y3000D01*
X477706Y28059D02*
X511794D01*
X473642D02*
X498701Y3000D01*
X473210D02*
X498269Y28059D01*
X476259D02*
X501318Y3000D01*
X475827D02*
X500886Y28059D01*
X491528Y3000D02*
X516587Y28059D01*
X491960D02*
X517019Y3000D01*
X489343Y28059D02*
X514402Y3000D01*
X494577Y28059D02*
X519636Y3000D01*
X551715D02*
X576774Y28059D01*
X494144Y3000D02*
X519204Y28059D01*
X484110D02*
X509169Y3000D01*
X486294D02*
X511353Y28059D01*
X483677Y3000D02*
X508736Y28059D01*
X488911Y3000D02*
X513970Y28059D01*
X486727D02*
X511786Y3000D01*
X452707Y28059D02*
X477767Y3000D01*
X454892D02*
X479951Y28059D01*
X371706D02*
X477294D01*
X457509Y3000D02*
X482568Y28059D01*
X457941D02*
X483000Y3000D01*
X455324Y28059D02*
X480383Y3000D01*
X392087D02*
X417146Y28059D01*
X447474D02*
X472533Y3000D01*
X450091Y28059D02*
X475150Y3000D01*
X449658D02*
X474717Y28059D01*
X467976Y3000D02*
X493035Y28059D01*
X468408D02*
X493468Y3000D01*
X465792Y28059D02*
X490851Y3000D01*
X471025Y28059D02*
X496084Y3000D01*
X470593D02*
X495652Y28059D01*
X460558D02*
X485617Y3000D01*
X462742D02*
X487801Y28059D01*
X460125Y3000D02*
X485184Y28059D01*
X465359Y3000D02*
X490418Y28059D01*
X463175D02*
X488234Y3000D01*
X530780D02*
X555839Y28059D01*
X531213D02*
X556272Y3000D01*
X528596Y28059D02*
X553655Y3000D01*
X533830Y28059D02*
X558889Y3000D01*
X536014D02*
X561073Y28059D01*
X533397Y3000D02*
X558456Y28059D01*
X523362D02*
X548421Y3000D01*
X525547D02*
X550606Y28059D01*
X522930Y3000D02*
X547989Y28059D01*
X528163Y3000D02*
X553223Y28059D01*
X525979D02*
X551038Y3000D01*
X544297Y28059D02*
X569356Y3000D01*
X546482D02*
X571540Y28059D01*
X543865Y3000D02*
X568924Y28059D01*
X549098Y3000D02*
X574157Y28059D01*
X549531D02*
X574590Y3000D01*
X546914Y28059D02*
X571973Y3000D01*
X538631D02*
X563690Y28059D01*
X539064D02*
X564122Y3000D01*
X536447Y28059D02*
X561506Y3000D01*
X541680Y28059D02*
X566739Y3000D01*
X541248D02*
X566307Y28059D01*
X502428D02*
X527487Y3000D01*
X504612D02*
X529671Y28059D01*
X501995Y3000D02*
X527054Y28059D01*
X507229Y3000D02*
X532288Y28059D01*
X507661D02*
X532720Y3000D01*
X505044Y28059D02*
X530103Y3000D01*
X497194Y28059D02*
X522253Y3000D01*
X499378D02*
X524437Y28059D01*
X496761Y3000D02*
X521820Y28059D01*
X499811D02*
X524870Y3000D01*
X452275D02*
X477331Y28056D01*
X517696Y3000D02*
X542755Y28059D01*
X518129D02*
X543188Y3000D01*
X515512Y28059D02*
X540571Y3000D01*
X520746Y28059D02*
X545805Y3000D01*
X520313D02*
X545372Y28059D01*
X510278D02*
X535337Y3000D01*
X512462D02*
X537522Y28059D01*
X509846Y3000D02*
X534905Y28059D01*
X515079Y3000D02*
X540138Y28059D01*
X512895D02*
X537954Y3000D01*
X635454D02*
X677529Y45074D01*
X638071Y3000D02*
X677529Y42458D01*
X632837Y3000D02*
X677529Y47691D01*
X612335Y28059D02*
X637394Y3000D01*
X614520D02*
X639579Y28059D01*
X611903Y3000D02*
X636962Y28059D01*
X606669Y3000D02*
X631728Y28059D01*
X607102D02*
X632161Y3000D01*
X604485Y28059D02*
X629544Y3000D01*
X609718Y28059D02*
X634777Y3000D01*
X609286D02*
X634345Y28059D01*
X656389Y3000D02*
X693673Y40284D01*
X659006Y3000D02*
X694380Y38374D01*
X653772Y3000D02*
X692966Y42193D01*
X664240Y3000D02*
X695794Y34555D01*
X666857Y3000D02*
X694969Y31112D01*
X661623Y3000D02*
X695087Y36464D01*
X648539Y3000D02*
X691551Y46012D01*
X651156Y3000D02*
X692258Y44103D01*
X640688Y3000D02*
X678098Y40410D01*
X645922Y3000D02*
X683139Y40218D01*
X643305Y3000D02*
X680522Y40218D01*
X583117Y3000D02*
X608176Y28059D01*
X583550D02*
X608609Y3000D01*
X580933Y28059D02*
X605992Y3000D01*
X586167Y28059D02*
X611226Y3000D01*
X588351D02*
X613410Y28059D01*
X585734Y3000D02*
X610793Y28059D01*
X575699D02*
X600758Y3000D01*
X577884D02*
X602943Y28059D01*
X572650Y3000D02*
X597709Y28059D01*
X580501Y3000D02*
X605560Y28059D01*
X578316D02*
X603375Y3000D01*
X598818D02*
X623877Y28059D01*
X599251D02*
X624310Y3000D01*
X596202D02*
X621261Y28059D01*
X601868D02*
X626927Y3000D01*
X604052D02*
X629111Y28059D01*
X601435Y3000D02*
X626494Y28059D01*
X590968Y3000D02*
X616027Y28059D01*
X591400D02*
X616460Y3000D01*
X588784Y28059D02*
X613843Y3000D01*
X594017Y28059D02*
X619076Y3000D01*
X593585D02*
X618644Y28059D01*
X635887D02*
X660946Y3000D01*
X638504Y28059D02*
X663563Y3000D01*
X633270Y28059D02*
X658329Y3000D01*
X643738Y28059D02*
X668796Y3000D01*
X646354Y28059D02*
X671413Y3000D01*
X641121Y28059D02*
X666180Y3000D01*
X627604D02*
X652663Y28059D01*
X628036D02*
X653095Y3000D01*
X625420Y28059D02*
X650479Y3000D01*
X630653Y28059D02*
X655712Y3000D01*
X630221D02*
X655280Y28059D01*
X672090Y3000D02*
X692061Y22971D01*
X674707Y3000D02*
X690607Y18900D01*
X669473Y3000D02*
X693515Y27041D01*
X679941Y3000D02*
X687700Y10759D01*
X682558Y3000D02*
X686246Y6688D01*
X677324Y3000D02*
X689153Y14829D01*
X651588Y28059D02*
X676647Y3000D01*
X654205Y28059D02*
X679264Y3000D01*
X648971Y28059D02*
X674030Y3000D01*
X683000D02*
X686000Y6000D01*
X656822Y28059D02*
X681881Y3000D01*
X567416D02*
X592475Y28059D01*
X567849D02*
X592908Y3000D01*
X565232Y28059D02*
X590291Y3000D01*
X570466Y28059D02*
X595525Y3000D01*
X573082Y28059D02*
X598142Y3000D01*
X570033D02*
X595092Y28059D01*
X559998D02*
X585057Y3000D01*
X562183D02*
X587242Y28059D01*
X559566Y3000D02*
X584625Y28059D01*
X564799Y3000D02*
X589858Y28059D01*
X562615D02*
X587674Y3000D01*
X620186Y28059D02*
X645245Y3000D01*
X622370D02*
X647429Y28059D01*
X619753Y3000D02*
X644812Y28059D01*
X624987Y3000D02*
X650046Y28059D01*
X622803D02*
X647862Y3000D01*
X614952Y28059D02*
X640011Y3000D01*
X617136D02*
X642196Y28059D01*
X575267Y3000D02*
X600326Y28059D01*
X617569D02*
X642628Y3000D01*
X596639Y28054D02*
X621693Y3000D01*
X374202Y28059D02*
X399261Y3000D01*
X376386D02*
X401445Y28059D01*
X373769Y3000D02*
X398828Y28059D01*
X379003Y3000D02*
X404062Y28059D01*
X379436D02*
X404495Y3000D01*
X376819Y28059D02*
X401878Y3000D01*
X366351Y28059D02*
X391410Y3000D01*
X368536D02*
X393595Y28059D01*
X365919Y3000D02*
X390978Y28059D01*
X371152Y3000D02*
X396212Y28059D01*
X368968D02*
X394027Y3000D01*
X389471D02*
X414530Y28059D01*
X389903D02*
X414962Y3000D01*
X387286Y28059D02*
X412345Y3000D01*
X394704D02*
X419763Y28059D01*
X557381D02*
X582441Y3000D01*
X392520Y28059D02*
X417579Y3000D01*
X382052Y28059D02*
X407112Y3000D01*
X384237D02*
X409296Y28059D01*
X381620Y3000D02*
X406679Y28059D01*
X386854Y3000D02*
X411913Y28059D01*
X384669D02*
X409728Y3000D01*
X345417Y28059D02*
X370476Y3000D01*
X347601D02*
X372660Y28059D01*
X344984Y3000D02*
X370043Y28059D01*
X350218Y3000D02*
X375277Y28059D01*
X350650D02*
X375709Y3000D01*
X348033Y28059D02*
X373093Y3000D01*
X339750D02*
X364809Y28059D01*
X340183D02*
X365242Y3000D01*
X337566Y28059D02*
X362625Y3000D01*
X342800Y28059D02*
X367859Y3000D01*
X342367D02*
X367426Y28059D01*
X360685Y3000D02*
X385744Y28059D01*
X361118D02*
X386177Y3000D01*
X358501Y28059D02*
X383560Y3000D01*
X363735Y28059D02*
X388794Y3000D01*
X363302D02*
X388361Y28059D01*
X353267D02*
X378326Y3000D01*
X355451D02*
X380510Y28059D01*
X352835Y3000D02*
X377894Y28059D01*
X358068Y3000D02*
X383127Y28059D01*
X355884D02*
X380943Y3000D01*
X429156Y28059D02*
X454215Y3000D01*
X431340D02*
X456399Y28059D01*
X428723Y3000D02*
X453782Y28059D01*
X433957Y3000D02*
X459016Y28059D01*
X434389D02*
X459448Y3000D01*
X431773Y28059D02*
X456832Y3000D01*
X423490D02*
X448549Y28059D01*
X423922D02*
X448981Y3000D01*
X421305Y28059D02*
X446364Y3000D01*
X426539Y28059D02*
X451598Y3000D01*
X426106D02*
X451165Y28059D01*
X444424Y3000D02*
X469483Y28059D01*
X444857D02*
X469916Y3000D01*
X442240Y28059D02*
X467299Y3000D01*
X554765Y28059D02*
X579824Y3000D01*
X556949D02*
X582008Y28059D01*
X447041Y3000D02*
X472100Y28059D01*
X437006D02*
X462065Y3000D01*
X439191D02*
X464250Y28059D01*
X436574Y3000D02*
X461633Y28059D01*
X441808Y3000D02*
X466866Y28059D01*
X439623D02*
X464682Y3000D01*
X402555D02*
X427614Y28059D01*
X402987D02*
X428046Y3000D01*
X400370Y28059D02*
X425429Y3000D01*
X405604Y28059D02*
X430663Y3000D01*
X407788D02*
X432847Y28059D01*
X405172Y3000D02*
X430231Y28059D01*
X397321Y3000D02*
X422380Y28059D01*
X397754D02*
X422813Y3000D01*
X395137Y28059D02*
X420196Y3000D01*
X399938D02*
X424997Y28059D01*
X371592Y28052D02*
X396644Y3000D01*
X416072Y28059D02*
X441131Y3000D01*
X418256D02*
X443315Y28059D01*
X415639Y3000D02*
X440698Y28059D01*
X420873Y3000D02*
X445932Y28059D01*
X418688D02*
X443747Y3000D01*
X410405D02*
X435464Y28059D01*
X410838D02*
X435897Y3000D01*
X408221Y28059D02*
X433280Y3000D01*
X413455Y28059D02*
X438514Y3000D01*
X413022D02*
X438081Y28059D01*
X70647D02*
X95706Y3000D01*
X72832D02*
X97891Y28059D01*
X70215Y3000D02*
X95274Y28059D01*
X75449Y3000D02*
X100507Y28059D01*
X75881D02*
X100940Y3000D01*
X73264Y28059D02*
X98323Y3000D01*
X64981D02*
X90040Y28059D01*
X65414D02*
X90473Y3000D01*
X62797Y28059D02*
X87856Y3000D01*
X68031Y28059D02*
X93089Y3000D01*
X67598D02*
X92657Y28059D01*
X85916Y3000D02*
X110975Y28059D01*
X86348D02*
X111407Y3000D01*
X83732Y28059D02*
X108791Y3000D01*
X88965Y28059D02*
X114024Y3000D01*
X91150D02*
X116209Y28059D01*
X88533Y3000D02*
X113592Y28059D01*
X78498D02*
X103557Y3000D01*
X80682D02*
X105741Y28059D01*
X78065Y3000D02*
X103124Y28059D01*
X83299Y3000D02*
X108358Y28059D01*
X81115D02*
X106174Y3000D01*
X27509Y60729D02*
X85239Y3000D01*
X27722Y57900D02*
X82622Y3000D01*
X26734Y56271D02*
X80005Y3000D01*
X30971Y46800D02*
X74772Y3000D01*
X30971Y44183D02*
X72155Y3000D01*
X25085Y55303D02*
X77388Y3000D01*
X26500Y63500D02*
X61941Y28059D01*
X30971Y41567D02*
X69538Y3000D01*
X24470Y40218D02*
X61687Y3000D01*
X29703Y40218D02*
X66921Y3000D01*
X27086Y40218D02*
X64304Y3000D01*
X51897D02*
X76956Y28059D01*
X54514Y3000D02*
X79573Y28059D01*
X49280Y3000D02*
X74339Y28059D01*
X59747Y3000D02*
X84806Y28059D01*
X62364Y3000D02*
X87423Y28059D01*
X57130Y3000D02*
X82190Y28059D01*
X38813Y3000D02*
X63872Y28059D01*
X41429Y3000D02*
X66488Y28059D01*
X36196Y3000D02*
X61598Y28402D01*
X46663Y3000D02*
X71722Y28059D01*
X44046Y3000D02*
X69105Y28059D01*
X162563Y24694D02*
X165929Y28059D01*
X163619Y23132D02*
X168546Y28059D01*
X160372Y25120D02*
X163312Y28059D01*
X332706D02*
X371294D01*
X157003D02*
X160044Y25018D01*
X154386Y28059D02*
X158642Y23803D01*
X151770Y28059D02*
X158656Y21173D01*
X125169Y3000D02*
X150228Y28059D01*
X125601D02*
X150660Y3000D01*
X122984Y28059D02*
X148043Y3000D01*
X127786D02*
X152845Y28059D01*
X117751D02*
X142810Y3000D01*
X119935D02*
X144994Y28059D01*
X117318Y3000D02*
X142377Y28059D01*
X122552Y3000D02*
X147611Y28059D01*
X120368D02*
X145426Y3000D01*
X99433Y28059D02*
X124492Y3000D01*
X101617D02*
X126676Y28059D01*
X99000Y3000D02*
X124059Y28059D01*
X61941D02*
X332294D01*
X102050D02*
X127109Y3000D01*
X26000D02*
X683000D01*
X93766D02*
X118825Y28059D01*
X94199D02*
X119258Y3000D01*
X91582Y28059D02*
X116641Y3000D01*
X96816Y28059D02*
X121875Y3000D01*
X96383D02*
X121442Y28059D01*
X112084Y3000D02*
X137143Y28059D01*
X112517D02*
X137576Y3000D01*
X109900Y28059D02*
X134959Y3000D01*
X115134Y28059D02*
X140193Y3000D01*
X114701D02*
X139760Y28059D01*
X104666D02*
X129725Y3000D01*
X106851D02*
X131910Y28059D01*
X104234Y3000D02*
X129293Y28059D01*
X109467Y3000D02*
X134527Y28059D01*
X107283D02*
X132342Y3000D01*
X25266Y62725D02*
X26041Y63500D01*
X24739D02*
X25687Y62552D01*
X21000Y63500D02*
X26500D01*
X26852Y61694D02*
X27579Y62421D01*
X27774Y60000D02*
X28887Y61113D01*
X22122Y63500D02*
X22857Y62765D01*
X22600Y62676D02*
X23424Y63500D01*
X21000Y62349D02*
Y63500D01*
X20968Y62037D02*
X21228Y61777D01*
X27300Y49058D02*
X34121Y55879D01*
X29897Y49038D02*
X35429Y54571D01*
X24683Y49058D02*
X32812Y57187D01*
X30971Y44879D02*
X38046Y51954D01*
X30971Y42262D02*
X39355Y50645D01*
X30971Y47496D02*
X36738Y53262D01*
X27162Y56770D02*
X30196Y59804D01*
X22160Y55611D02*
X28714Y49058D01*
X29799D02*
X30248Y48969D01*
X23500Y49058D02*
X29799D01*
X20556Y60859D02*
X20907Y61820D01*
X19582Y58190D02*
X20568Y57203D01*
X18921Y56380D02*
X20318Y57777D01*
X18450Y55089D02*
X20196Y59872D01*
X18882Y56273D02*
X26097Y49058D01*
X15233Y44842D02*
X26272Y55881D01*
X14062Y41054D02*
X31504Y58496D01*
X18176Y54362D02*
X23483Y49055D01*
X15953Y24627D02*
X40663Y49337D01*
X17574Y52417D02*
X21349Y56191D01*
X16404Y48629D02*
X23043Y55269D01*
X12500Y36000D02*
X18313Y54807D01*
X17558Y52363D02*
X22328Y47593D01*
X16940Y50364D02*
X22328Y44976D01*
X30628Y48715D02*
X30882Y48334D01*
X30971Y47886D01*
X30248Y48969D02*
X30628Y48715D01*
X30971Y41390D02*
Y47886D01*
X30882Y40941D02*
X30971Y41390D01*
X30628Y40561D02*
X30882Y40941D01*
X23051Y48969D02*
X23500Y49058D01*
X22671Y48715D02*
X23051Y48969D01*
X22417Y48334D02*
X22671Y48715D01*
X22417Y40941D02*
X22671Y40561D01*
X22328Y41390D02*
X22417Y40941D01*
X24556Y4444D02*
X55056Y34944D01*
X25864Y3136D02*
X56364Y33636D01*
X23247Y5753D02*
X53747Y36253D01*
X30962Y3000D02*
X58981Y31019D01*
X33579Y3000D02*
X60289Y29711D01*
X28345Y3000D02*
X57673Y32327D01*
X30248Y40307D02*
X30628Y40561D01*
X23051Y40307D02*
X23500Y40218D01*
X22671Y40561D02*
X23051Y40307D01*
X29799Y40218D02*
X30248Y40307D01*
X23500Y40218D02*
X29799D01*
X22328Y47886D02*
X22417Y48334D01*
X17172Y20612D02*
X43280Y46720D01*
X16562Y22619D02*
X41971Y48028D01*
X14734Y28641D02*
X26310Y40218D01*
X15343Y26634D02*
X28927Y40218D01*
X14124Y30649D02*
X23693Y40218D01*
X16322Y48365D02*
X22328Y42359D01*
Y41390D02*
Y47886D01*
X12891Y37266D02*
X22328Y46703D01*
X13515Y32656D02*
X22328Y41469D01*
X12906Y34664D02*
X22328Y44086D01*
X20219Y10574D02*
X49822Y40178D01*
X20219Y10574D02*
X49822Y40178D01*
X19609Y12582D02*
X48514Y41486D01*
X21939Y7061D02*
X52439Y37561D01*
X20828Y8567D02*
X51130Y38870D01*
X18390Y16597D02*
X45897Y44103D01*
X19000Y14589D02*
X47205Y42795D01*
X17781Y18604D02*
X44588Y45412D01*
X21000Y8000D02*
X26000Y3000D01*
X12500Y36000D02*
X21000Y8000D01*
X261245Y3000D02*
X286304Y28059D01*
X261677D02*
X286736Y3000D01*
X259061Y28059D02*
X284120Y3000D01*
X264294Y28059D02*
X289353Y3000D01*
X266478D02*
X291538Y28059D01*
X263862Y3000D02*
X288921Y28059D01*
X253827D02*
X278886Y3000D01*
X256011D02*
X281070Y28059D01*
X253394Y3000D02*
X278453Y28059D01*
X258628Y3000D02*
X283687Y28059D01*
X256444D02*
X281503Y3000D01*
X274762Y28059D02*
X299821Y3000D01*
X276946D02*
X302005Y28059D01*
X274329Y3000D02*
X299388Y28059D01*
X279563Y3000D02*
X304622Y28059D01*
X279995D02*
X305054Y3000D01*
X277379Y28059D02*
X302437Y3000D01*
X269095D02*
X294154Y28059D01*
X269528D02*
X294587Y3000D01*
X266911Y28059D02*
X291970Y3000D01*
X272145Y28059D02*
X297204Y3000D01*
X271712D02*
X296771Y28059D01*
X232459Y3000D02*
X257519Y28059D01*
X232892D02*
X257951Y3000D01*
X230275Y28059D02*
X255334Y3000D01*
X235509Y28059D02*
X260568Y3000D01*
X237693D02*
X262752Y28059D01*
X235076Y3000D02*
X260135Y28059D01*
X225042D02*
X250100Y3000D01*
X227226D02*
X252285Y28059D01*
X224609Y3000D02*
X249668Y28059D01*
X229843Y3000D02*
X254902Y28059D01*
X227658D02*
X252717Y3000D01*
X245976Y28059D02*
X271035Y3000D01*
X248161D02*
X273220Y28059D01*
X245544Y3000D02*
X270603Y28059D01*
X250777Y3000D02*
X275836Y28059D01*
X251210D02*
X276269Y3000D01*
X248593Y28059D02*
X273652Y3000D01*
X240310D02*
X265369Y28059D01*
X240743D02*
X265802Y3000D01*
X238126Y28059D02*
X263185Y3000D01*
X243359Y28059D02*
X268419Y3000D01*
X242927D02*
X267986Y28059D01*
X316631D02*
X341690Y3000D01*
X318815D02*
X343875Y28059D01*
X316199Y3000D02*
X341258Y28059D01*
X321432Y3000D02*
X346491Y28059D01*
X321865D02*
X346924Y3000D01*
X319248Y28059D02*
X344307Y3000D01*
X310965D02*
X336024Y28059D01*
X311398D02*
X336457Y3000D01*
X308781Y28059D02*
X333840Y3000D01*
X314014Y28059D02*
X339073Y3000D01*
X313582D02*
X338641Y28059D01*
X331900Y3000D02*
X356959Y28059D01*
X334517Y3000D02*
X359576Y28059D01*
X329715D02*
X354774Y3000D01*
X334949Y28059D02*
X360008Y3000D01*
X337134D02*
X362193Y28059D01*
X332335Y28056D02*
X357391Y3000D01*
X324482Y28059D02*
X349541Y3000D01*
X326666D02*
X351725Y28059D01*
X324049Y3000D02*
X349108Y28059D01*
X329283Y3000D02*
X354342Y28059D01*
X327099D02*
X352158Y3000D01*
X290030D02*
X315089Y28059D01*
X290463D02*
X315522Y3000D01*
X287846Y28059D02*
X312905Y3000D01*
X293080Y28059D02*
X318139Y3000D01*
X295264D02*
X320323Y28059D01*
X292647Y3000D02*
X317706Y28059D01*
X282612D02*
X307671Y3000D01*
X284797D02*
X309856Y28059D01*
X282180Y3000D02*
X307239Y28059D01*
X287413Y3000D02*
X312472Y28059D01*
X285229D02*
X310288Y3000D01*
X303547Y28059D02*
X328606Y3000D01*
X305731D02*
X330790Y28059D01*
X303114Y3000D02*
X328173Y28059D01*
X308348Y3000D02*
X333407Y28059D01*
X306164D02*
X331223Y3000D01*
X297881D02*
X322940Y28059D01*
X298313D02*
X323372Y3000D01*
X295696Y28059D02*
X320756Y3000D01*
X300930Y28059D02*
X325989Y3000D01*
X300498D02*
X325557Y28059D01*
X161804Y3000D02*
X186864Y28059D01*
X162237D02*
X187296Y3000D01*
X159620Y28059D02*
X184679Y3000D01*
X164854Y28059D02*
X189913Y3000D01*
X167038D02*
X192097Y28059D01*
X164421Y3000D02*
X189480Y28059D01*
X151337Y3000D02*
X176396Y28059D01*
X153954Y3000D02*
X179013Y28059D01*
X149153D02*
X174212Y3000D01*
X159188D02*
X184247Y28059D01*
X156571Y3000D02*
X181630Y28059D01*
X217191D02*
X242250Y3000D01*
X219375D02*
X244434Y28059D01*
X216758Y3000D02*
X241817Y28059D01*
X221992Y3000D02*
X247051Y28059D01*
X222425D02*
X247484Y3000D01*
X219808Y28059D02*
X244867Y3000D01*
X211525D02*
X236584Y28059D01*
X211957D02*
X237016Y3000D01*
X209340Y28059D02*
X234399Y3000D01*
X214574Y28059D02*
X239633Y3000D01*
X214142D02*
X239201Y28059D01*
X15086Y44367D02*
X56454Y3000D01*
X15704Y46366D02*
X59070Y3000D01*
X14468Y42368D02*
X53837Y3000D01*
X130402D02*
X155461Y28059D01*
X130835D02*
X155894Y3000D01*
X128218Y28059D02*
X153277Y3000D01*
X13233Y38370D02*
X48603Y3000D01*
X13850Y40369D02*
X51220Y3000D01*
X12615Y36371D02*
X45986Y3000D01*
X14569Y29183D02*
X40753Y3000D01*
X13429Y32941D02*
X43369Y3000D01*
X143919Y28059D02*
X168978Y3000D01*
X146103D02*
X171162Y28059D01*
X141302D02*
X166361Y3000D01*
X148720D02*
X173779Y28059D01*
X146536D02*
X171595Y3000D01*
X133452Y28059D02*
X158511Y3000D01*
X135636D02*
X160695Y28059D01*
X133019Y3000D02*
X158078Y28059D01*
X138685D02*
X163744Y3000D01*
X136069Y28059D02*
X161128Y3000D01*
X188406Y28059D02*
X213465Y3000D01*
X190590D02*
X215649Y28059D01*
X187973Y3000D02*
X213032Y28059D01*
X193207Y3000D02*
X218266Y28059D01*
X193639D02*
X218698Y3000D01*
X191022Y28059D02*
X216082Y3000D01*
X182739D02*
X207798Y28059D01*
X183172D02*
X208231Y3000D01*
X180555Y28059D02*
X205614Y3000D01*
X185789Y28059D02*
X210848Y3000D01*
X185356D02*
X210415Y28059D01*
X203674Y3000D02*
X228733Y28059D01*
X204107D02*
X229166Y3000D01*
X201490Y28059D02*
X226549Y3000D01*
X206723Y28059D02*
X231783Y3000D01*
X208908D02*
X233967Y28059D01*
X206291Y3000D02*
X231350Y28059D01*
X196256D02*
X221315Y3000D01*
X198440D02*
X223499Y28059D01*
X195824Y3000D02*
X220883Y28059D01*
X201057Y3000D02*
X226116Y28059D01*
X198873D02*
X223932Y3000D01*
X140870D02*
X158806Y20937D01*
X163518Y21544D02*
X182062Y3000D01*
X138253D02*
X158380Y23128D01*
X159673Y20156D02*
X176829Y3000D01*
X162303Y20143D02*
X179446Y3000D01*
X143487D02*
X160368Y19882D01*
X16851Y21668D02*
X35519Y3000D01*
X17991Y17910D02*
X32902Y3000D01*
X15710Y25426D02*
X38136Y3000D01*
X20273Y10396D02*
X27668Y3000D01*
X19132Y14153D02*
X30285Y3000D01*
X175321Y28059D02*
X200380Y3000D01*
X177506D02*
X202565Y28059D01*
X174889Y3000D02*
X199948Y28059D01*
X180122Y3000D02*
X205182Y28059D01*
X177938D02*
X202997Y3000D01*
X169655D02*
X194714Y28059D01*
X170088D02*
X195147Y3000D01*
X167471Y28059D02*
X192530Y3000D01*
X172705Y28059D02*
X197764Y3000D01*
X172272D02*
X197331Y28059D01*
X483851Y114673D02*
X507474Y91051D01*
X485372D02*
X508994Y114673D01*
X482755Y91051D02*
X506378Y114673D01*
X690582D02*
X704500Y100755D01*
X487989Y91051D02*
X511611Y114673D01*
X486468D02*
X510090Y91051D01*
X477522D02*
X501144Y114673D01*
X478618D02*
X502240Y91051D01*
X476001Y114673D02*
X499623Y91051D01*
X481235Y114673D02*
X504857Y91051D01*
X480215Y91127D02*
X503761Y114673D01*
X496936D02*
X520558Y91051D01*
X498456D02*
X522079Y114673D01*
X495840Y91051D02*
X519462Y114673D01*
X501073Y91051D02*
X524695Y114673D01*
X502169D02*
X525791Y91051D01*
X499552Y114673D02*
X523175Y91051D01*
X490606D02*
X514228Y114673D01*
X491702D02*
X515324Y91051D01*
X489085Y114673D02*
X512707Y91051D01*
X494319Y114673D02*
X517941Y91051D01*
X493223D02*
X516845Y114673D01*
X456587Y91051D02*
X480209Y114673D01*
X457683D02*
X481305Y91051D01*
X455066Y114673D02*
X478372Y91368D01*
X460300Y114673D02*
X483922Y91051D01*
X461821D02*
X485443Y114673D01*
X459204Y91051D02*
X482826Y114673D01*
X449832D02*
X473454Y91051D01*
X451353D02*
X474975Y114673D01*
X448736Y91051D02*
X472358Y114673D01*
X453970Y91051D02*
X477592Y114673D01*
X452449D02*
X476071Y91051D01*
X470767Y114673D02*
X494389Y91051D01*
X472288D02*
X495910Y114673D01*
X469671Y91051D02*
X493293Y114673D01*
X474905Y91051D02*
X498527Y114673D01*
X473384D02*
X497006Y91051D01*
X464437D02*
X488060Y114673D01*
X465533D02*
X489155Y91051D01*
X462917Y114673D02*
X486539Y91051D01*
X468150Y114673D02*
X491772Y91051D01*
X467054D02*
X490676Y114673D01*
X694327D02*
X704500Y104500D01*
X693198Y114673D02*
X704500Y103372D01*
X535092Y91051D02*
X558714Y114673D01*
X687965D02*
X704500Y98138D01*
X685348Y114673D02*
X704500Y95521D01*
X682731Y114673D02*
X704500Y92904D01*
X529859Y91051D02*
X553481Y114673D01*
X530955D02*
X554577Y91051D01*
X528338Y114673D02*
X551960Y91051D01*
X533572Y114673D02*
X557194Y91051D01*
X532476D02*
X556098Y114673D01*
X544039D02*
X567661Y91051D01*
X545560D02*
X569182Y114673D01*
X542943Y91051D02*
X566565Y114673D01*
X548177Y91051D02*
X571799Y114673D01*
X549273D02*
X572895Y91051D01*
X546656Y114673D02*
X570278Y91051D01*
X537709D02*
X561331Y114673D01*
X538805D02*
X562427Y91051D01*
X536188Y114673D02*
X559810Y91051D01*
X541422Y114673D02*
X565044Y91051D01*
X540326D02*
X563948Y114673D01*
X510020D02*
X533642Y91051D01*
X511541D02*
X535163Y114673D01*
X508924Y91051D02*
X532546Y114673D01*
X512637D02*
X536259Y91051D01*
X514158D02*
X537780Y114673D01*
X480339Y91051D02*
X675217D01*
X504786Y114673D02*
X528408Y91051D01*
X506307D02*
X529929Y114673D01*
X503690Y91051D02*
X527312Y114673D01*
X507403D02*
X531025Y91051D01*
X523104Y114673D02*
X546726Y91051D01*
X524625D02*
X548247Y114673D01*
X522008Y91051D02*
X545630Y114673D01*
X527242Y91051D02*
X550864Y114673D01*
X525721D02*
X549343Y91051D01*
X516775D02*
X540396Y114673D01*
X517871D02*
X541493Y91051D01*
X515254Y114673D02*
X538876Y91051D01*
X520487Y114673D02*
X544109Y91051D01*
X519391D02*
X543013Y114673D01*
X387028D02*
X405146Y96555D01*
X383315Y91051D02*
X406937Y114673D01*
X380698Y91051D02*
X404320Y114673D01*
X408407Y95209D02*
X427872Y114673D01*
X388549Y91051D02*
X412171Y114673D01*
X385932Y91051D02*
X409554Y114673D01*
X378081Y91051D02*
X401704Y114673D01*
X379177D02*
X402800Y91051D01*
X376561Y114673D02*
X400183Y91051D01*
X384411Y114673D02*
X403693Y95391D01*
X381794Y114673D02*
X403521Y92947D01*
X441982Y114673D02*
X465604Y91051D01*
X443503D02*
X467125Y114673D01*
X440886Y91051D02*
X464508Y114673D01*
X446119Y91051D02*
X469742Y114673D01*
X447216D02*
X470838Y91051D01*
X444599Y114673D02*
X468221Y91051D01*
X391166D02*
X414788Y114673D01*
X436748D02*
X460370Y91051D01*
X389645Y114673D02*
X413267Y91051D01*
X439365Y114673D02*
X462987Y91051D01*
X438269D02*
X461891Y114673D01*
X357147Y91051D02*
X380769Y114673D01*
X358243D02*
X381865Y91051D01*
X355626Y114673D02*
X379248Y91051D01*
X360859Y114673D02*
X384482Y91051D01*
X362380D02*
X386002Y114673D01*
X359764Y91051D02*
X383385Y114673D01*
X350392D02*
X374014Y91051D01*
X351913D02*
X375535Y114673D01*
X349296Y91051D02*
X372918Y114673D01*
X354530Y91051D02*
X378152Y114673D01*
X353009D02*
X376631Y91051D01*
X371327Y114673D02*
X394949Y91051D01*
X372848D02*
X396470Y114673D01*
X370231Y91051D02*
X393853Y114673D01*
X375465Y91051D02*
X399087Y114673D01*
X373944D02*
X397566Y91051D01*
X364997D02*
X388619Y114673D01*
X366093D02*
X389715Y91051D01*
X363476Y114673D02*
X387098Y91051D01*
X368710Y114673D02*
X392332Y91051D01*
X367614D02*
X391236Y114673D01*
X415813D02*
X439435Y91051D01*
X417334D02*
X440956Y114673D01*
X414717Y91051D02*
X438339Y114673D01*
X419951Y91051D02*
X443573Y114673D01*
X421047D02*
X444669Y91051D01*
X418430Y114673D02*
X442052Y91051D01*
X410580Y114673D02*
X434202Y91051D01*
X412101D02*
X435722Y114673D01*
X409484Y91051D02*
X433106Y114673D01*
X413197D02*
X436819Y91051D01*
X408555Y93146D02*
X410650Y91051D01*
X430418D02*
X454040Y114673D01*
X431514D02*
X455136Y91051D01*
X428898Y114673D02*
X452520Y91051D01*
X434131Y114673D02*
X457753Y91051D01*
X435652D02*
X459274Y114673D01*
X433035Y91051D02*
X456657Y114673D01*
X423664D02*
X447286Y91051D01*
X425185D02*
X448807Y114673D01*
X422568Y91051D02*
X446190Y114673D01*
X427802Y91051D02*
X451424Y114673D01*
X426281D02*
X449903Y91051D01*
X393782D02*
X417405Y114673D01*
X394879D02*
X418501Y91051D01*
X392262Y114673D02*
X415884Y91051D01*
X407059Y96477D02*
X425255Y114673D01*
X397495D02*
X421117Y91051D01*
X396399D02*
X420021Y114673D01*
X402729D02*
X426351Y91051D01*
X405346Y114673D02*
X428968Y91051D01*
X400112Y114673D02*
X423734Y91051D01*
X407963Y114673D02*
X431585Y91051D01*
X406867D02*
X430489Y114673D01*
X401633Y91051D02*
X403523Y92941D01*
X407391Y91693D02*
X408033Y91051D01*
X399016D02*
X422638Y114673D01*
X404947Y91521D02*
X405416Y91051D01*
X404250D02*
X404791Y91593D01*
X680114Y114673D02*
X704500Y90288D01*
X678588Y82770D02*
X702409Y106591D01*
X677497Y114673D02*
X704500Y87671D01*
X680102Y79050D02*
X704500Y103448D01*
X682451Y78782D02*
X704500Y100831D01*
X679345Y80910D02*
X703718Y105282D01*
X677831Y84629D02*
X701101Y107899D01*
X677196Y86189D02*
X684603Y78782D01*
X677074Y86489D02*
X699792Y109208D01*
X680211Y78782D02*
X685000D01*
X678992Y81776D02*
X681986Y78782D01*
X686172Y72036D02*
X704500Y90364D01*
Y53500D02*
Y104500D01*
X684644Y67890D02*
X704500Y87747D01*
X686157Y64170D02*
X704500Y82513D01*
X686914Y62310D02*
X704500Y79896D01*
X685400Y66030D02*
X704500Y85130D01*
X686172Y77269D02*
X704500Y95597D01*
X686172Y74652D02*
X704500Y92980D01*
X685057Y78771D02*
X704500Y98214D01*
X685449Y78693D02*
X685829Y78439D01*
X685000Y78782D02*
X685449Y78693D01*
X671169Y91051D02*
X694559Y114441D01*
X674881Y114673D02*
X704500Y85054D01*
X668552Y91051D02*
X692174Y114673D01*
X675560Y90209D02*
X697176Y111824D01*
X676317Y88349D02*
X698484Y110516D01*
X673785Y91051D02*
X695867Y113133D01*
X658084Y91051D02*
X681706Y114673D01*
X660701Y91051D02*
X684323Y114673D01*
X655468Y91051D02*
X679090Y114673D01*
X665935Y91051D02*
X689557Y114673D01*
X663318Y91051D02*
X686940Y114673D01*
X661796D02*
X704500Y71970D01*
X659179Y114673D02*
X704500Y69353D01*
X656563Y114673D02*
X704500Y66736D01*
X675400Y90602D02*
X704500Y61502D01*
X653946Y114673D02*
X704500Y64119D01*
X672264Y114673D02*
X704500Y82437D01*
X669647Y114673D02*
X704500Y79820D01*
X667030Y114673D02*
X704500Y77203D01*
X675217Y91051D02*
X680211Y78782D01*
X664413Y114673D02*
X704500Y74586D01*
X694715Y62260D02*
X704500Y72046D01*
X695980Y60908D02*
X704500Y69429D01*
X692729Y62891D02*
X704500Y74662D01*
X696474Y58785D02*
X704500Y66812D01*
X689942Y54871D02*
X690677Y55606D01*
X689767Y55301D02*
X691568Y53500D01*
X696422D02*
X704500Y61578D01*
X699039Y53500D02*
X704500Y58961D01*
X693805Y53500D02*
X704500Y64195D01*
X701655Y53500D02*
X704500Y56344D01*
X704272Y53500D02*
X704500Y53728D01*
X690500Y53500D02*
X704500D01*
X695924Y56995D02*
X699419Y53500D01*
X696479Y59057D02*
X702036Y53500D01*
X694621Y55681D02*
X696802Y53500D01*
X692579Y55106D02*
X694185Y53500D01*
X691188D02*
X692800Y55112D01*
X686172Y71114D02*
Y77610D01*
X686083Y70666D02*
X686172Y71114D01*
X686083Y78059D02*
X686172Y77610D01*
X685482Y70054D02*
X692642Y62893D01*
X684379Y68540D02*
X690581Y62338D01*
X683809Y69942D02*
X686954Y62213D01*
X685829Y78439D02*
X686083Y78059D01*
X685829Y70285D02*
X686083Y70666D01*
X685449Y70031D02*
X685829Y70285D01*
X685000Y69942D02*
X685449Y70031D01*
X683809Y69942D02*
X685000D01*
X687671Y60451D02*
X704500Y77279D01*
X686172Y74596D02*
X704500Y56269D01*
X686172Y77213D02*
X704500Y58885D01*
X687543Y60765D02*
X690500Y53500D01*
X686172Y71979D02*
X704500Y53652D01*
X686175Y64127D02*
X689266Y61036D01*
X688428Y58591D02*
X688695Y58857D01*
X687971Y59714D02*
X688692Y58993D01*
X578058Y114673D02*
X601680Y91051D01*
X579579D02*
X603201Y114673D01*
X576962Y91051D02*
X600584Y114673D01*
X582196Y91051D02*
X605818Y114673D01*
X583292D02*
X606914Y91051D01*
X580675Y114673D02*
X604297Y91051D01*
X571728D02*
X595350Y114673D01*
X572824D02*
X596446Y91051D01*
X570208Y114673D02*
X593829Y91051D01*
X575441Y114673D02*
X599063Y91051D01*
X574345D02*
X597967Y114673D01*
X592663Y91051D02*
X616285Y114673D01*
X593759D02*
X617381Y91051D01*
X591142Y114673D02*
X614764Y91051D01*
X596376Y114673D02*
X619998Y91051D01*
X597897D02*
X621519Y114673D01*
X595280Y91051D02*
X618902Y114673D01*
X585909D02*
X609531Y91051D01*
X587429D02*
X611052Y114673D01*
X584813Y91051D02*
X608435Y114673D01*
X590046Y91051D02*
X613668Y114673D01*
X588525D02*
X612148Y91051D01*
X550794D02*
X574416Y114673D01*
X551890D02*
X575512Y91051D01*
X347775Y114673D02*
X371397Y91051D01*
X554506Y114673D02*
X578128Y91051D01*
X556027D02*
X579649Y114673D01*
X553410Y91051D02*
X577032Y114673D01*
X342542D02*
X366164Y91051D01*
X344062D02*
X367684Y114673D01*
X341445Y91051D02*
X365068Y114673D01*
X346679Y91051D02*
X370301Y114673D01*
X345158D02*
X368780Y91051D01*
X564974Y114673D02*
X588596Y91051D01*
X566495D02*
X590117Y114673D01*
X563878Y91051D02*
X587500Y114673D01*
X569111Y91051D02*
X592733Y114673D01*
X567591D02*
X591213Y91051D01*
X558644D02*
X582266Y114673D01*
X559740D02*
X583362Y91051D01*
X557123Y114673D02*
X580745Y91051D01*
X562357Y114673D02*
X585979Y91051D01*
X561261D02*
X584883Y114673D01*
X634533Y91051D02*
X658155Y114673D01*
X635629D02*
X659251Y91051D01*
X633012Y114673D02*
X656634Y91051D01*
X638246Y114673D02*
X661868Y91051D01*
X639766D02*
X663388Y114673D01*
X637150Y91051D02*
X660772Y114673D01*
X627778D02*
X651400Y91051D01*
X629299D02*
X652921Y114673D01*
X626682Y91051D02*
X650304Y114673D01*
X631916Y91051D02*
X655538Y114673D01*
X630395D02*
X654017Y91051D01*
X648712Y114673D02*
X672334Y91051D01*
X650234D02*
X673856Y114673D01*
X647617Y91051D02*
X671239Y114673D01*
X652851Y91051D02*
X676473Y114673D01*
X651329D02*
X674951Y91051D01*
X642383D02*
X666005Y114673D01*
X643478D02*
X667100Y91051D01*
X640862Y114673D02*
X664485Y91051D01*
X646095Y114673D02*
X669717Y91051D01*
X645000D02*
X668622Y114673D01*
X606843D02*
X630465Y91051D01*
X608364D02*
X631986Y114673D01*
X605747Y91051D02*
X629369Y114673D01*
X610981Y91051D02*
X634603Y114673D01*
X612077D02*
X635699Y91051D01*
X609460Y114673D02*
X633082Y91051D01*
X600514D02*
X624136Y114673D01*
X601610D02*
X625232Y91051D01*
X598993Y114673D02*
X622615Y91051D01*
X604226Y114673D02*
X627849Y91051D01*
X603130D02*
X626753Y114673D01*
X621449Y91051D02*
X645071Y114673D01*
X622544D02*
X646167Y91051D01*
X619928Y114673D02*
X643550Y91051D01*
X625161Y114673D02*
X648783Y91051D01*
X624065D02*
X647687Y114673D01*
X614694D02*
X638316Y91051D01*
X616215D02*
X639837Y114673D01*
X613598Y91051D02*
X637220Y114673D01*
X618832Y91051D02*
X642454Y114673D01*
X617311D02*
X640933Y91051D01*
X281258D02*
X304880Y114673D01*
X282354D02*
X305976Y91051D01*
X279737Y114673D02*
X303359Y91051D01*
X303289Y114673D02*
X323311Y94652D01*
X284971Y114673D02*
X308593Y91051D01*
X283875D02*
X307497Y114673D01*
X274503D02*
X298126Y91051D01*
X276024D02*
X299646Y114673D01*
X273407Y91051D02*
X297029Y114673D01*
X278641Y91051D02*
X302263Y114673D01*
X277120D02*
X300742Y91051D01*
X294342D02*
X317964Y114673D01*
X295438D02*
X319060Y91051D01*
X292821Y114673D02*
X316443Y91051D01*
X298055Y114673D02*
X321677Y91051D01*
X299576D02*
X323198Y114673D01*
X296959Y91051D02*
X320581Y114673D01*
X287588D02*
X311210Y91051D01*
X289108D02*
X312731Y114673D01*
X286492Y91051D02*
X310114Y114673D01*
X291725Y91051D02*
X315347Y114673D01*
X290205D02*
X313827Y91051D01*
X126864D02*
X150486Y114673D01*
X127960D02*
X151582Y91051D01*
X125343Y114673D02*
X148965Y91051D01*
X130577Y114673D02*
X154199Y91051D01*
X258802Y114673D02*
X282424Y91051D01*
X129481D02*
X153103Y114673D01*
X120109D02*
X143731Y91051D01*
X121630D02*
X145252Y114673D01*
X119013Y91051D02*
X142635Y114673D01*
X124247Y91051D02*
X147869Y114673D01*
X122726D02*
X146348Y91051D01*
X268174D02*
X291796Y114673D01*
X269270D02*
X292892Y91051D01*
X266653Y114673D02*
X290275Y91051D01*
X271887Y114673D02*
X295509Y91051D01*
X270791D02*
X294413Y114673D01*
X261419D02*
X285041Y91051D01*
X262940D02*
X286562Y114673D01*
X260323Y91051D02*
X283945Y114673D01*
X265557Y91051D02*
X289179Y114673D01*
X264036D02*
X287658Y91051D01*
X326588Y97129D02*
X344133Y114673D01*
X328171Y96095D02*
X346750Y114673D01*
X324224D02*
X347846Y91051D01*
X328635Y93942D02*
X349366Y114673D01*
X327944Y92635D02*
X329528Y91051D01*
X326840Y114673D02*
X350463Y91051D01*
X326151Y91811D02*
X326911Y91051D01*
X325744D02*
X326558Y91865D01*
X334691Y114673D02*
X358313Y91051D01*
X336212D02*
X359834Y114673D01*
X333595Y91051D02*
X357217Y114673D01*
X338829Y91051D02*
X362451Y114673D01*
X339925D02*
X363547Y91051D01*
X337308Y114673D02*
X360930Y91051D01*
X329457Y114673D02*
X353079Y91051D01*
X330978D02*
X354600Y114673D01*
X328361Y91051D02*
X351983Y114673D01*
X332074D02*
X355696Y91051D01*
X328694Y94502D02*
X332144Y91051D01*
X307427D02*
X331048Y114673D01*
X310043Y91051D02*
X333665Y114673D01*
X304810Y91051D02*
X328432Y114673D01*
X29684Y91051D02*
X477661D01*
X8173Y114673D02*
X694327D01*
X305906D02*
X324135Y96444D01*
X302193Y91051D02*
X325815Y114673D01*
X300672D02*
X324294Y91051D01*
X308523Y114673D02*
X326002Y97194D01*
X316373Y114673D02*
X339995Y91051D01*
X317894D02*
X341516Y114673D01*
X315277Y91051D02*
X338899Y114673D01*
X321607D02*
X345229Y91051D01*
X318990Y114673D02*
X342612Y91051D01*
X312660D02*
X336282Y114673D01*
X313756D02*
X337378Y91051D01*
X311139Y114673D02*
X334761Y91051D01*
X323128D02*
X324405Y92329D01*
X320511Y91051D02*
X323371Y93912D01*
X43125Y91051D02*
X66747Y114673D01*
X44221D02*
X67843Y91051D01*
X43125D02*
X66747Y114673D01*
X46837D02*
X70460Y91051D01*
X48358D02*
X71980Y114673D01*
X45742Y91051D02*
X69363Y114673D01*
X37891Y91051D02*
X61513Y114673D01*
X38987D02*
X62609Y91051D01*
X36370Y114673D02*
X59992Y91051D01*
X41604Y114673D02*
X65226Y91051D01*
X40508D02*
X64130Y114673D01*
X57305D02*
X80927Y91051D01*
X58826D02*
X82448Y114673D01*
X56209Y91051D02*
X79831Y114673D01*
X61443Y91051D02*
X85065Y114673D01*
X117492D02*
X141114Y91051D01*
X59922Y114673D02*
X83544Y91051D01*
X50975D02*
X74597Y114673D01*
X52071D02*
X75693Y91051D01*
X49454Y114673D02*
X73076Y91051D01*
X54688Y114673D02*
X78310Y91051D01*
X53592D02*
X77214Y114673D01*
X3437Y95850D02*
X22260Y114673D01*
X3437Y93233D02*
X24877Y114673D01*
X3437Y98467D02*
X19643Y114673D01*
X12818D02*
X36441Y91051D01*
X15435Y114673D02*
X39057Y91051D01*
X10202Y114673D02*
X33824Y91051D01*
X3437Y108934D02*
X9176Y114673D01*
X3437Y106317D02*
X11793Y114673D01*
X3437Y109937D02*
X8173Y114673D01*
X3437Y101084D02*
X17027Y114673D01*
X3437Y103701D02*
X14410Y114673D01*
X31136D02*
X54758Y91051D01*
X32657D02*
X56279Y114673D01*
X30040Y91051D02*
X53662Y114673D01*
X35274Y91051D02*
X58896Y114673D01*
X33753D02*
X57375Y91051D01*
X20669Y114673D02*
X44291Y91051D01*
X23286Y114673D02*
X46908Y91051D01*
X18052Y114673D02*
X41674Y91051D01*
X28519Y114673D02*
X52142Y91051D01*
X25903Y114673D02*
X49525Y91051D01*
X96558Y114673D02*
X120180Y91051D01*
X98079D02*
X121701Y114673D01*
X95462Y91051D02*
X119084Y114673D01*
X100695Y91051D02*
X124317Y114673D01*
X101791D02*
X125413Y91051D01*
X99174Y114673D02*
X122796Y91051D01*
X90228D02*
X113850Y114673D01*
X91324D02*
X114946Y91051D01*
X88707Y114673D02*
X112329Y91051D01*
X93941Y114673D02*
X117563Y91051D01*
X92845D02*
X116467Y114673D01*
X111163Y91051D02*
X134785Y114673D01*
X112259D02*
X135881Y91051D01*
X109642Y114673D02*
X133264Y91051D01*
X114876Y114673D02*
X138498Y91051D01*
X116396D02*
X140018Y114673D01*
X113780Y91051D02*
X137402Y114673D01*
X104408D02*
X128030Y91051D01*
X105929D02*
X129551Y114673D01*
X103312Y91051D02*
X126934Y114673D01*
X108546Y91051D02*
X132168Y114673D01*
X107025D02*
X130647Y91051D01*
X69293D02*
X92915Y114673D01*
X70389D02*
X94011Y91051D01*
X67772Y114673D02*
X91394Y91051D01*
X73006Y114673D02*
X96628Y91051D01*
X74527D02*
X98149Y114673D01*
X71910Y91051D02*
X95532Y114673D01*
X64059Y91051D02*
X87682Y114673D01*
X65155D02*
X88778Y91051D01*
X62539Y114673D02*
X86161Y91051D01*
X66676D02*
X90298Y114673D01*
X7879Y114379D02*
X31207Y91051D01*
X83473Y114673D02*
X107095Y91051D01*
X84994D02*
X108616Y114673D01*
X82377Y91051D02*
X105999Y114673D01*
X87611Y91051D02*
X111233Y114673D01*
X86090D02*
X109712Y91051D01*
X77144D02*
X100766Y114673D01*
X78240D02*
X101862Y91051D01*
X75623Y114673D02*
X99245Y91051D01*
X80857Y114673D02*
X104479Y91051D01*
X79760D02*
X103383Y114673D01*
X181818Y91051D02*
X205440Y114673D01*
X182914D02*
X206536Y91051D01*
X180297Y114673D02*
X203919Y91051D01*
X185530Y114673D02*
X209153Y91051D01*
X187051D02*
X210673Y114673D01*
X184434Y91051D02*
X208057Y114673D01*
X175063D02*
X198685Y91051D01*
X176584D02*
X200206Y114673D01*
X173967Y91051D02*
X197589Y114673D01*
X179201Y91051D02*
X202823Y114673D01*
X177680D02*
X201302Y91051D01*
X195998Y114673D02*
X219620Y91051D01*
X197519D02*
X221141Y114673D01*
X194902Y91051D02*
X218524Y114673D01*
X200136Y91051D02*
X223758Y114673D01*
X201232D02*
X224854Y91051D01*
X198615Y114673D02*
X222237Y91051D01*
X189668D02*
X213290Y114673D01*
X190764D02*
X214386Y91051D01*
X188147Y114673D02*
X211769Y91051D01*
X193381Y114673D02*
X217003Y91051D01*
X192285D02*
X215907Y114673D01*
X154128D02*
X177750Y91051D01*
X155649D02*
X179271Y114673D01*
X153032Y91051D02*
X176654Y114673D01*
X158266Y91051D02*
X181888Y114673D01*
X159362D02*
X182984Y91051D01*
X156745Y114673D02*
X180367Y91051D01*
X147799D02*
X171421Y114673D01*
X148895D02*
X172517Y91051D01*
X146278Y114673D02*
X169900Y91051D01*
X151512Y114673D02*
X175134Y91051D01*
X150416D02*
X174038Y114673D01*
X168733Y91051D02*
X192356Y114673D01*
X169829D02*
X193451Y91051D01*
X167213Y114673D02*
X190835Y91051D01*
X172446Y114673D02*
X196068Y91051D01*
X171350D02*
X194972Y114673D01*
X161979D02*
X185601Y91051D01*
X163500D02*
X187122Y114673D01*
X160883Y91051D02*
X184505Y114673D01*
X166117Y91051D02*
X189739Y114673D01*
X164596D02*
X188218Y91051D01*
X237867Y114673D02*
X261490Y91051D01*
X239388D02*
X263010Y114673D01*
X236771Y91051D02*
X260394Y114673D01*
X242005Y91051D02*
X265627Y114673D01*
X243101D02*
X266723Y91051D01*
X240484Y114673D02*
X264106Y91051D01*
X231538D02*
X255160Y114673D01*
X232634D02*
X256256Y91051D01*
X230017Y114673D02*
X253639Y91051D01*
X235251Y114673D02*
X258873Y91051D01*
X234155D02*
X257777Y114673D01*
X252473Y91051D02*
X276095Y114673D01*
X253569D02*
X277191Y91051D01*
X250952Y114673D02*
X274574Y91051D01*
X256186Y114673D02*
X279807Y91051D01*
X257706D02*
X281328Y114673D01*
X255089Y91051D02*
X278712Y114673D01*
X245718D02*
X269340Y91051D01*
X247239D02*
X270861Y114673D01*
X244622Y91051D02*
X268244Y114673D01*
X249856Y91051D02*
X273478Y114673D01*
X248335D02*
X271957Y91051D01*
X210603D02*
X234225Y114673D01*
X211699D02*
X235321Y91051D01*
X209082Y114673D02*
X232704Y91051D01*
X214316Y114673D02*
X237938Y91051D01*
X215837D02*
X239459Y114673D01*
X213220Y91051D02*
X236842Y114673D01*
X203849D02*
X227470Y91051D01*
X205369D02*
X228991Y114673D01*
X202752Y91051D02*
X226375Y114673D01*
X207986Y91051D02*
X231608Y114673D01*
X206465D02*
X230087Y91051D01*
X224783Y114673D02*
X248405Y91051D01*
X226304D02*
X249926Y114673D01*
X223687Y91051D02*
X247309Y114673D01*
X228921Y91051D02*
X252543Y114673D01*
X227400D02*
X251022Y91051D01*
X218454D02*
X242076Y114673D01*
X219550D02*
X243172Y91051D01*
X216933Y114673D02*
X240555Y91051D01*
X222166Y114673D02*
X245789Y91051D01*
X221070D02*
X244692Y114673D01*
X139948Y91051D02*
X163570Y114673D01*
X141044D02*
X164666Y91051D01*
X138427Y114673D02*
X162049Y91051D01*
X143661Y114673D02*
X167283Y91051D01*
X145182D02*
X168804Y114673D01*
X142565Y91051D02*
X166187Y114673D01*
X133194D02*
X156816Y91051D01*
X134714D02*
X158336Y114673D01*
X132097Y91051D02*
X155720Y114673D01*
X137331Y91051D02*
X160953Y114673D01*
X135810D02*
X159432Y91051D01*
X6571Y113071D02*
X29410Y90231D01*
X5262Y111762D02*
X28756Y88268D01*
X3954Y110454D02*
X28102Y86306D01*
X27059Y83177D02*
X29684Y91051D01*
X25455Y78782D02*
X27059Y83177D01*
X3437Y61831D02*
X28197Y86591D01*
X3437Y82185D02*
X20477Y65145D01*
X3437Y59214D02*
X26863Y82640D01*
X3437Y87419D02*
X21877Y68979D01*
X23500Y78782D02*
X25455D01*
X3437Y79568D02*
X19457Y63548D01*
X3437Y87999D02*
X30111Y114673D01*
X3437Y85383D02*
X32728Y114673D01*
X3437Y90616D02*
X27494Y114673D01*
X3437Y80149D02*
X37961Y114673D01*
X3437Y77532D02*
X40578Y114673D01*
X3437Y82766D02*
X35344Y114673D01*
X3437Y105737D02*
X26775Y82399D01*
X3437Y103120D02*
X26075Y80482D01*
X3437Y108354D02*
X27448Y84343D01*
X3437Y97886D02*
X22799Y78524D01*
X3437Y100503D02*
X25158Y78782D01*
X3437Y72298D02*
X45812Y114673D01*
X3437Y69682D02*
X48429Y114673D01*
X3437Y74915D02*
X43195Y114673D01*
X3437Y64448D02*
X29505Y90516D01*
X3437Y67065D02*
X51046Y114673D01*
X3437Y95269D02*
X22328Y76378D01*
X3437Y92652D02*
X22328Y73762D01*
X3437Y55618D02*
Y109937D01*
Y84802D02*
X21177Y67062D01*
X3437Y90036D02*
X22328Y71145D01*
X23051Y78693D02*
X23500Y78782D01*
X22671Y78439D02*
X23051Y78693D01*
X22417Y78059D02*
X22671Y78439D01*
X22328Y77610D02*
X22417Y78059D01*
X22328Y71114D02*
X22417Y70666D01*
X20395Y64920D02*
X22466Y70593D01*
X22328Y71114D02*
Y77610D01*
X15236Y63162D02*
X22351Y70277D01*
X15236Y63162D02*
X22351Y70277D01*
X19457Y62349D02*
Y63500D01*
X17000Y55618D02*
X19457Y62349D01*
X16802Y62112D02*
X20846Y66156D01*
X17776Y59995D02*
X18378Y59394D01*
X17703Y60396D02*
X19342Y62035D01*
X17397Y57758D02*
X17678Y57476D01*
X15542Y55618D02*
X17838Y57914D01*
X16194Y56344D02*
X16920Y55618D01*
X14217D02*
X17000D01*
X3437Y74335D02*
X14409Y63362D01*
X3437Y56597D02*
X22328Y75488D01*
X3437Y76951D02*
X19078Y61311D01*
X12634Y63177D02*
X22328Y72871D01*
X3437Y69101D02*
X10758Y61780D01*
X3437Y66484D02*
X10039Y59882D01*
X3437Y71718D02*
X12172Y62982D01*
X7692Y55618D02*
X10252Y58178D01*
X3437Y63867D02*
X11686Y55618D01*
X10308D02*
X11303Y56612D01*
X3437Y55618D02*
X13611D01*
X3437Y58633D02*
X6452Y55618D01*
X5075D02*
X10237Y60781D01*
X3437Y61250D02*
X9069Y55618D01*
X7692D02*
X10252Y58178D01*
X3437Y56017D02*
X3836Y55618D01*
D36*
X640345Y38394D02*
X640516D01*
X638823Y36872D02*
X640345Y38394D01*
X620653Y36872D02*
X638823D01*
X618737Y38787D02*
X620653Y36872D01*
X612563Y38787D02*
X618737D01*
X434188Y37481D02*
X434359D01*
X434968Y36872D02*
X455472D01*
X434359Y37481D02*
X434968Y36872D01*
X459600Y41000D02*
X478000D01*
X455472Y36872D02*
X459600Y41000D01*
X265165Y36872D02*
X274457Y38000D01*
X260913Y36872D02*
X265165D01*
X256628Y37606D02*
X258619Y37239D01*
X260913Y36872D01*
X250612Y37606D02*
X256628D01*
X248643Y35638D02*
X250612Y37606D01*
X248472Y35638D02*
X248643D01*
X69181Y37606D02*
X69352D01*
X70139Y36819D02*
X97134D01*
X98709Y38394D01*
X69352Y37606D02*
X70139Y36819D01*
D39*
X549500Y60500D02*
D03*
X539500D02*
D03*
X398500Y37000D02*
D03*
X388500D02*
D03*
X320500D02*
D03*
X310500D02*
D03*
X171000Y69000D02*
D03*
X191000D02*
D03*
X181000D02*
D03*
X161000D02*
D03*
Y59000D02*
D03*
X171000D02*
D03*
D40*
X640909Y124221D02*
D03*
X616500D02*
D03*
X640909Y-6095D02*
D03*
X616500D02*
D03*
X458079D02*
D03*
X433669D02*
D03*
X458079Y124221D02*
D03*
X433669D02*
D03*
X275244Y-6095D02*
D03*
X250835D02*
D03*
X275244Y124221D02*
D03*
X250835D02*
D03*
X92409Y-6095D02*
D03*
X68000D02*
D03*
X92409Y124221D02*
D03*
X68000D02*
D03*
D41*
X343500Y44500D02*
D03*
X406000Y94000D02*
D03*
X401500Y80500D02*
D03*
X394000D02*
D03*
X339500Y62500D02*
D03*
X342000Y84000D02*
D03*
X326000D02*
D03*
X484741Y80909D02*
D03*
X309500Y54000D02*
D03*
X113000Y88000D02*
D03*
X171500Y83500D02*
D03*
X248866Y88587D02*
D03*
X308056Y68373D02*
D03*
X528500Y88500D02*
D03*
X393000Y55500D02*
D03*
X374943Y46943D02*
D03*
X374500Y55000D02*
D03*
X581500Y41000D02*
D03*
X484460D02*
D03*
X478000D02*
D03*
X274457Y38000D02*
D03*
X215500Y39500D02*
D03*
X69181Y37606D02*
D03*
X565500Y81000D02*
D03*
X161000Y22500D02*
D03*
X164500Y88500D02*
D03*
X242961Y44299D02*
D03*
X122000Y40000D02*
D03*
X98709Y38394D02*
D03*
X115000Y31500D02*
D03*
X210000Y33500D02*
D03*
X247685Y30913D02*
D03*
X248472Y35638D02*
D03*
X649571Y83276D02*
D03*
X646028Y33669D02*
D03*
X62882Y32882D02*
D03*
X63669Y84063D02*
D03*
X147500Y31000D02*
D03*
X477500Y30500D02*
D03*
X618469Y87606D02*
D03*
X566000Y31000D02*
D03*
X596500Y30500D02*
D03*
X512000D02*
D03*
X378500Y66000D02*
D03*
X376000Y88000D02*
D03*
X371500Y30500D02*
D03*
X332500D02*
D03*
X318000Y88500D02*
D03*
X326000Y94500D02*
D03*
X337000Y77000D02*
D03*
X337500Y53500D02*
D03*
X338444Y70000D02*
D03*
X324213Y71500D02*
D03*
X640516Y38394D02*
D03*
X612563Y38787D02*
D03*
X575000Y88000D02*
D03*
X573500Y67000D02*
D03*
X580707Y84824D02*
D03*
X479000Y89000D02*
D03*
X434188Y37481D02*
D03*
X477500Y65500D02*
D03*
X205000Y88000D02*
D03*
X205500Y62000D02*
D03*
X214500Y71000D02*
D03*
X113500Y63000D02*
D03*
X123000Y71500D02*
D03*
D42*
X607445Y45087D02*
D03*
D43*
X507000Y44500D02*
D03*
X226500Y55000D02*
D03*
X143000Y44500D02*
D03*
X133500Y54500D02*
D03*
X373000Y77500D02*
D03*
X356000Y76500D02*
D03*
X497500Y55500D02*
D03*
X24000Y59043D02*
D03*
X13914Y59500D02*
D03*
X682000Y58000D02*
D03*
X692586Y59000D02*
D03*
X592500Y55500D02*
D03*
D44*
X146795Y44500D02*
G03*
X146795Y44500I-3795J0D01*
G01*
X137295Y54500D02*
G03*
X137295Y54500I-3795J0D01*
G01*
X124595Y40000D02*
G03*
X124595Y40000I-2595J0D01*
G01*
X245556Y44299D02*
G03*
X245556Y44299I-2595J0D01*
G01*
X230295Y55000D02*
G03*
X230295Y55000I-3795J0D01*
G01*
X228551Y27500D02*
G03*
X225449Y27500I-1551J0D01*
G01*
Y26385D02*
G03*
X228551Y26385I1551J0D01*
G01*
X218095Y39500D02*
G03*
X218095Y39500I-2595J0D01*
G01*
X610039Y45087D02*
G03*
X610039Y45087I-2595J0D01*
G01*
X596295Y55500D02*
G03*
X596295Y55500I-3795J0D01*
G01*
X584095Y41000D02*
G03*
X584095Y41000I-2595J0D01*
G01*
X581841Y25000D02*
G03*
X579311Y25504I-1434J-593D01*
G01*
X504000Y42175D02*
G03*
X510795Y44500I3000J2325D01*
G01*
D02*
G03*
X504000Y46825I-3795J0D01*
G01*
X501295Y55500D02*
G03*
X501295Y55500I-3795J0D01*
G01*
X487055Y41000D02*
G03*
X487055Y41000I-2595J0D01*
G01*
X377000Y90128D02*
G03*
X377000Y85872I-1000J-2128D01*
G01*
X376795Y77500D02*
G03*
X376795Y77500I-3795J0D01*
G01*
X359795Y76500D02*
G03*
X359795Y76500I-3795J0D01*
G01*
X346095Y44500D02*
G03*
X346095Y44500I-2595J0D01*
G01*
X160500Y81500D02*
Y94500D01*
X159106Y80106D02*
Y94480D01*
X157531Y78531D02*
Y94458D01*
X155956Y76956D02*
Y94436D01*
X154000Y75000D02*
X160500Y81500D01*
X154381Y75381D02*
Y94414D01*
X152806Y46306D02*
Y94392D01*
X144932Y47767D02*
Y94281D01*
X154000Y47500D02*
Y75000D01*
X143358Y48278D02*
Y94259D01*
X151232Y44732D02*
Y94370D01*
X149657Y43157D02*
Y94347D01*
X148082Y41582D02*
Y94325D01*
X146000Y39500D02*
X154000Y47500D01*
X146507Y45950D02*
Y94303D01*
Y40007D02*
Y43050D01*
X144932Y39500D02*
Y41234D01*
X143358Y39500D02*
Y40722D01*
X137058Y81942D02*
Y94170D01*
X138633Y80367D02*
Y94192D01*
X125000Y94000D02*
X160500Y94500D01*
X135484Y83516D02*
Y94148D01*
X133909Y85091D02*
Y94125D01*
X130759Y88241D02*
Y94081D01*
X132334Y86666D02*
Y94103D01*
X129184Y89816D02*
Y94059D01*
X127610Y91390D02*
Y94037D01*
X126035Y92965D02*
Y94015D01*
X141783Y39500D02*
Y40905D01*
X139000Y39500D02*
X146000Y39500D01*
X141783Y48095D02*
Y94236D01*
X140208Y47071D02*
Y94214D01*
X125000Y94000D02*
X139000Y80000D01*
X140208Y39500D02*
Y41929D01*
X139000Y39500D02*
Y80000D01*
X135484Y57736D02*
Y59000D01*
X136000D02*
X137500Y57000D01*
X132000Y59000D02*
X136000D01*
X137058Y55820D02*
Y57589D01*
X137500Y36000D02*
Y57000D01*
X133909Y58273D02*
Y59000D01*
X132334Y58112D02*
Y59000D01*
X130759Y57125D02*
Y57759D01*
X140208Y26000D02*
Y33292D01*
X141783Y26000D02*
Y31717D01*
X137500Y36000D02*
X147500Y26000D01*
X144932D02*
Y28568D01*
X146507Y26000D02*
Y26993D01*
X143358Y26000D02*
Y30142D01*
X135484Y26000D02*
Y51264D01*
X137058Y26000D02*
Y53180D01*
X130759Y26000D02*
Y51875D01*
X133909Y26000D02*
Y50727D01*
X138633Y26000D02*
Y34867D01*
X132334Y26000D02*
Y50888D01*
X129000Y45500D02*
Y56000D01*
X132000Y59000D01*
X126500Y43000D02*
X129000Y45500D01*
X121000Y43000D02*
X126500D01*
X121310Y42502D02*
Y43000D01*
X122885Y42440D02*
Y43000D01*
X118500Y40500D02*
X121000Y43000D01*
X119736Y41268D02*
Y41736D01*
X124460Y40827D02*
Y43000D01*
X127610Y26000D02*
Y44110D01*
X129184Y26000D02*
Y56184D01*
X126035Y26000D02*
Y43000D01*
X124460Y26000D02*
Y39173D01*
X118500Y26000D02*
X147500D01*
X118500D02*
Y40500D01*
X121310Y26000D02*
Y37498D01*
X122885Y26000D02*
Y37560D01*
X119736Y26000D02*
Y38732D01*
X245717Y80913D02*
Y92724D01*
Y74446D02*
Y80913D01*
X244145Y72338D02*
Y92712D01*
X244327Y72635D02*
X245717Y74446D01*
X242844Y70085D02*
X244249Y72519D01*
X241707Y67363D02*
X242782Y69959D01*
X242570Y69447D02*
Y92699D01*
X240995Y64743D02*
Y92686D01*
X240934Y64516D02*
X241662Y67231D01*
X240934Y55580D02*
X241662Y52865D01*
X241707Y52733D02*
X242782Y50137D01*
X240540Y61593D02*
X240907Y64379D01*
X244145Y46609D02*
Y47758D01*
X244327Y47461D02*
X245717Y45650D01*
X242844Y50011D02*
X244249Y47577D01*
X244145Y40362D02*
Y41990D01*
X245717Y40362D02*
Y45650D01*
X242570Y46865D02*
Y50649D01*
X240995Y45994D02*
Y55353D01*
X242570Y40362D02*
Y41734D01*
X240995Y40362D02*
Y42604D01*
X229972Y78028D02*
Y92597D01*
X231546Y76454D02*
Y92610D01*
X218000Y92500D02*
X245717Y92724D01*
X226822Y81178D02*
Y92571D01*
X228397Y79603D02*
Y92584D01*
X218000Y90000D02*
X231937Y76063D01*
X223672Y84328D02*
Y92546D01*
X225247Y82753D02*
Y92559D01*
X222098Y85902D02*
Y92533D01*
X218948Y89052D02*
Y92508D01*
X220523Y87477D02*
Y92520D01*
X218000Y90000D02*
Y92500D01*
X240531Y58643D02*
X240531Y61453D01*
X240540Y58503D02*
X240907Y55717D01*
X239420Y40362D02*
Y92673D01*
X232331Y40362D02*
X245717D01*
X236271D02*
Y92648D01*
X237846Y40362D02*
Y92661D01*
X234696Y40362D02*
Y92635D01*
X233121Y40362D02*
Y92622D01*
X231937Y39968D02*
X232331Y40362D01*
X231937Y39968D02*
Y76063D01*
X228397Y58287D02*
Y59000D01*
X229972Y56534D02*
Y59000D01*
X224500D02*
X230500D01*
X228397Y28175D02*
Y51713D01*
X225247Y58583D02*
Y59000D01*
X223672Y57532D02*
Y58172D01*
X226822Y29041D02*
Y51218D01*
X229972Y24500D02*
Y53466D01*
X230500Y24500D02*
Y59000D01*
X228551Y26385D02*
Y27500D01*
X228397Y24500D02*
Y25711D01*
X223672Y24500D02*
Y52468D01*
X225247Y24500D02*
Y51417D01*
X222098Y24500D02*
Y56598D01*
X226822Y24500D02*
Y24845D01*
X225449Y26385D02*
Y27500D01*
X215798Y42078D02*
Y50298D01*
X217373Y41296D02*
Y51873D01*
X212500Y47000D02*
X224500Y59000D01*
X205000Y24500D02*
X230500D01*
X214224Y41760D02*
Y48724D01*
X212500Y32000D02*
Y47000D01*
X218948Y24500D02*
Y53448D01*
X220523Y24500D02*
Y55023D01*
X212649Y24500D02*
Y47149D01*
X215798Y24500D02*
Y36922D01*
X217373Y24500D02*
Y37704D01*
X214224Y24500D02*
Y37240D01*
X209499Y24500D02*
Y28999D01*
X211074Y24500D02*
Y30574D01*
X205000Y24500D02*
X212500Y32000D01*
X207924Y24500D02*
Y27424D01*
X206350Y24500D02*
Y25850D01*
X614223Y85050D02*
Y95087D01*
X612648Y83180D02*
Y95087D01*
X611073Y81310D02*
Y95087D01*
X615713Y86819D02*
Y95087D01*
X610141Y72828D02*
Y80203D01*
X615713Y86819D01*
X609498Y71796D02*
Y95087D01*
X608511Y70085D02*
X609916Y72519D01*
X607924Y68691D02*
Y95087D01*
X607373Y67363D02*
X608449Y69959D01*
X606601Y55580D02*
X607328Y52865D01*
X606601Y64516D02*
X607328Y67231D01*
X608511Y50011D02*
X609916Y47577D01*
X609498Y46672D02*
Y48300D01*
X607373Y52733D02*
X608449Y50137D01*
X609498Y40756D02*
Y43501D01*
X610141Y40756D02*
Y47268D01*
X607924Y47637D02*
Y51405D01*
X606349Y47438D02*
Y57426D01*
X607924Y40756D02*
Y42537D01*
X606349Y40756D02*
Y42735D01*
X596900Y77753D02*
Y95087D01*
X598475Y75446D02*
Y95087D01*
X595325Y80059D02*
Y95087D01*
X585065D02*
X615713D01*
X606349Y62670D02*
Y95087D01*
X585065D02*
X598783Y74994D01*
X587451Y91591D02*
Y95087D01*
X589026Y89285D02*
Y95087D01*
X585876Y93898D02*
Y95087D01*
X592176Y84672D02*
Y95087D01*
X593750Y82366D02*
Y95087D01*
X590601Y86979D02*
Y95087D01*
X606207Y61593D02*
X606574Y64379D01*
X606207Y58503D02*
X606574Y55717D01*
X606198Y58643D02*
X606198Y61453D01*
X599965Y40756D02*
X610141D01*
X601624D02*
Y95087D01*
X603199Y40756D02*
Y95087D01*
X600050Y40756D02*
Y95087D01*
X598783Y41937D02*
X599965Y40756D01*
X604774D02*
Y95087D01*
X598783Y74994D02*
X598783Y41937D01*
X593750Y59083D02*
Y59500D01*
X594000D02*
X597000Y56500D01*
X590500Y59500D02*
X594000D01*
X590601Y58786D02*
Y59500D01*
X589026Y57028D02*
Y58026D01*
X587500Y56500D02*
X590500Y59500D01*
X587500Y47500D02*
Y56500D01*
X584000Y44000D02*
X587500Y47500D01*
X597000Y35500D02*
Y56500D01*
X596900Y35400D02*
Y56600D01*
X595325Y33825D02*
Y52966D01*
X593750Y32250D02*
Y51917D01*
X593500Y32000D02*
X597000Y35500D01*
X593500Y25000D02*
Y32000D01*
X592176Y25000D02*
Y51719D01*
X589026Y25000D02*
Y53972D01*
X590601Y25000D02*
Y52214D01*
X587451Y25000D02*
Y47451D01*
X584302Y25000D02*
Y44302D01*
X585876Y25000D02*
Y45876D01*
X582727Y25000D02*
Y38713D01*
Y43287D02*
Y44000D01*
X578500D02*
X584000D01*
X581152Y43572D02*
Y44000D01*
X579577Y42743D02*
Y44000D01*
X577000Y42500D02*
X578500Y44000D01*
X581152Y25768D02*
Y38428D01*
X579577Y25718D02*
Y39257D01*
X577000Y34000D02*
Y42500D01*
X578002Y25000D02*
Y43502D01*
X568000Y25000D02*
X577000Y34000D01*
X578903Y25097D02*
X579311Y25504D01*
X581841Y25000D02*
X593500D01*
X568000D02*
X578814D01*
X574853D02*
Y31853D01*
X576428Y25000D02*
Y33428D01*
X573278Y25000D02*
Y30278D01*
X570128Y25000D02*
Y27128D01*
X571703Y25000D02*
Y28703D01*
X568554Y25000D02*
Y25554D01*
X519735Y60735D02*
Y93500D01*
X518160Y59160D02*
Y93500D01*
X516585Y57585D02*
Y93500D01*
X520000Y61000D02*
Y93500D01*
X512500Y53500D02*
X520000Y61000D01*
X508711Y47888D02*
Y93500D01*
X510286Y46399D02*
Y93500D01*
X507136Y48293D02*
Y93500D01*
X515010Y56010D02*
Y93500D01*
X513436Y54436D02*
Y93500D01*
X512500Y43000D02*
Y53500D01*
X511861Y42361D02*
Y93500D01*
X510286Y40786D02*
Y42601D01*
X509500Y40000D02*
X512500Y43000D01*
X508711Y40000D02*
Y41112D01*
X507136Y40000D02*
Y40707D01*
X499262Y82728D02*
Y93500D01*
X500837Y80990D02*
Y93500D01*
X497688Y84465D02*
Y93500D01*
X502412Y79252D02*
Y93500D01*
X489500D02*
X520000D01*
X491388Y91416D02*
Y93500D01*
X492963Y89679D02*
Y93500D01*
X489814Y93154D02*
Y93500D01*
X496113Y86203D02*
Y93500D01*
X494538Y87941D02*
Y93500D01*
X505562Y48012D02*
Y93500D01*
Y40000D02*
Y40988D01*
X504000Y40000D02*
X509500D01*
X503987Y77515D02*
Y93500D01*
X489500D02*
X504000Y77500D01*
Y40000D02*
Y42175D01*
Y46825D02*
Y77500D01*
X499262Y58861D02*
Y59500D01*
X500837Y57308D02*
Y59500D01*
X494000D02*
X502000D01*
X496113Y59033D02*
Y59500D01*
X494538Y57873D02*
Y59500D01*
X500837Y25500D02*
Y53692D01*
X502000Y25500D02*
Y59500D01*
X499262Y25500D02*
Y52139D01*
X497688Y25500D02*
Y51709D01*
X492963Y25500D02*
Y58463D01*
X491388Y25500D02*
Y56888D01*
X496113Y25500D02*
Y51967D01*
X494538Y25500D02*
Y53127D01*
X485089Y43518D02*
Y50589D01*
X486664Y42370D02*
Y52164D01*
X481000Y46500D02*
X494000Y59500D01*
X483514Y43417D02*
Y49014D01*
X481940Y41620D02*
Y47440D01*
X488239Y25500D02*
Y53739D01*
X489814Y25500D02*
Y55314D01*
X486664Y25500D02*
Y39630D01*
X481000Y25500D02*
X502000D01*
X481940D02*
Y40380D01*
X481000Y25500D02*
Y46500D01*
X485089Y25500D02*
Y38482D01*
X483514Y25500D02*
Y38583D01*
X377000Y90128D02*
Y93000D01*
X376428Y90312D02*
Y93000D01*
Y79129D02*
Y85688D01*
X373278Y81285D02*
Y93000D01*
X371704Y81067D02*
Y93000D01*
X374853Y80812D02*
Y85948D01*
Y90052D02*
Y93000D01*
X377000Y75156D02*
X377000Y85872D01*
X376428Y74774D02*
Y75871D01*
X372267Y72000D02*
X377000Y75156D01*
X374853Y73724D02*
Y74188D01*
X373278Y72675D02*
Y73715D01*
X365404Y85596D02*
Y93000D01*
X358000D02*
X366000Y85000D01*
X370129Y79982D02*
Y93000D01*
X358000D02*
X377000D01*
X360680Y90320D02*
Y93000D01*
X359105Y91895D02*
Y93000D01*
X363830Y87170D02*
Y93000D01*
X362255Y88745D02*
Y93000D01*
X371704Y72000D02*
Y73933D01*
X366000Y72000D02*
X372267D01*
X368554D02*
Y93000D01*
X366979Y72000D02*
Y93000D01*
X370129Y72000D02*
Y75018D01*
X366000Y72000D02*
Y85000D01*
X361000Y81500D02*
X363000Y80000D01*
X359105Y78682D02*
Y81500D01*
X352000D02*
X361000D01*
X357530Y79973D02*
Y81500D01*
X354381Y79932D02*
Y81500D01*
X352806Y78550D02*
Y81500D01*
X352000Y54500D02*
Y81500D01*
X355956Y80295D02*
Y81500D01*
X363000Y35500D02*
Y80000D01*
Y35500D02*
X367500Y27500D01*
X362255D02*
Y80559D01*
X365404Y27500D02*
Y31225D01*
X366979Y27500D02*
Y28426D01*
X363830Y27500D02*
Y34025D01*
X359105Y27500D02*
Y74318D01*
X360680Y27500D02*
Y81500D01*
X352806Y27500D02*
Y74450D01*
X355956Y27500D02*
Y72705D01*
X357530Y27500D02*
Y73027D01*
X354381Y27500D02*
Y73067D01*
X345000Y47500D02*
X352000Y54500D01*
X344932Y46664D02*
Y47500D01*
X342000Y47500D02*
X345000Y47500D01*
X343357Y47091D02*
Y47500D01*
X341782Y46446D02*
Y47282D01*
X339500Y45000D02*
X342000Y47500D01*
X339500Y45000D02*
X339500Y35500D01*
X349656Y27500D02*
Y52156D01*
X351231Y27500D02*
Y53731D01*
X348082Y27500D02*
Y50582D01*
X344932Y27500D02*
Y42336D01*
X346507Y27500D02*
Y49007D01*
X336000Y27500D02*
X367500D01*
X341782D02*
Y42554D01*
X343357Y27500D02*
Y41909D01*
X340208Y27500D02*
Y45708D01*
X337058Y27500D02*
Y29918D01*
X338633Y27500D02*
Y33518D01*
X336000Y27500D02*
X339500Y35500D01*
M02*
