G04*
G04 #@! TF.GenerationSoftware,Altium Limited,Altium Designer,24.10.1 (45)*
G04*
G04 Layer_Color=32896*
%FSLAX25Y25*%
%MOIN*%
G70*
G04*
G04 #@! TF.SameCoordinates,3C39243C-CA6B-4253-8BA6-19DEFFBB94D5*
G04*
G04*
G04 #@! TF.FilePolarity,Positive*
G04*
G01*
G75*
%ADD10C,0.01000*%
%ADD12C,0.00787*%
%ADD36C,0.01968*%
D10*
X81432Y117054D02*
X82580Y118202D01*
Y120498D01*
X81432Y121646D01*
X80285D01*
X79137Y120498D01*
Y118202D01*
X77989Y117054D01*
X76841D01*
X75693Y118202D01*
Y120498D01*
X76841Y121646D01*
X82580Y114758D02*
Y110167D01*
Y112462D01*
X75693D01*
X82580Y107871D02*
Y105575D01*
Y106723D01*
X75693D01*
Y107871D01*
Y105575D01*
X82580Y97539D02*
Y102131D01*
X79137D01*
Y99835D01*
Y102131D01*
X75693D01*
X82580Y90652D02*
Y95244D01*
X79137D01*
Y92948D01*
Y95244D01*
X75693D01*
X82580Y83764D02*
Y88356D01*
X75693D01*
Y83764D01*
X79137Y88356D02*
Y86060D01*
X75693Y81468D02*
X82580D01*
X75693Y76877D01*
X82580D01*
Y69989D02*
Y74581D01*
X75693D01*
Y69989D01*
X79137Y74581D02*
Y72285D01*
X75693Y67693D02*
X82580D01*
Y64250D01*
X81432Y63102D01*
X79137D01*
X77989Y64250D01*
Y67693D01*
Y65398D02*
X75693Y63102D01*
X82580Y49327D02*
Y53918D01*
X79137D01*
Y51622D01*
Y53918D01*
X75693D01*
Y47031D02*
X82580D01*
Y43587D01*
X81432Y42439D01*
X79137D01*
X77989Y43587D01*
Y47031D01*
Y44735D02*
X75693Y42439D01*
Y36700D02*
X82580D01*
X79137Y40143D01*
Y35552D01*
X81432Y26368D02*
X82580Y25220D01*
Y22924D01*
X81432Y21777D01*
X76841D01*
X75693Y22924D01*
Y25220D01*
X76841Y26368D01*
X81432D01*
X75693Y19481D02*
X76841D01*
Y18333D01*
X75693D01*
Y19481D01*
Y10297D02*
X82580D01*
X79137Y13741D01*
Y9149D01*
X75693Y6854D02*
X82580D01*
X80285Y4558D01*
X82580Y2262D01*
X75693D01*
Y-34D02*
X82580D01*
X80285Y-2330D01*
X82580Y-4626D01*
X75693D01*
X265055Y117054D02*
X266202Y118202D01*
Y120498D01*
X265055Y121646D01*
X263907D01*
X262759Y120498D01*
Y118202D01*
X261611Y117054D01*
X260463D01*
X259315Y118202D01*
Y120498D01*
X260463Y121646D01*
X266202Y114758D02*
Y110167D01*
Y112462D01*
X259315D01*
X266202Y107871D02*
Y105575D01*
Y106723D01*
X259315D01*
Y107871D01*
Y105575D01*
X266202Y97539D02*
Y102131D01*
X262759D01*
Y99835D01*
Y102131D01*
X259315D01*
X266202Y90652D02*
Y95244D01*
X262759D01*
Y92948D01*
Y95244D01*
X259315D01*
X266202Y83764D02*
Y88356D01*
X259315D01*
Y83764D01*
X262759Y88356D02*
Y86060D01*
X259315Y81468D02*
X266202D01*
X259315Y76877D01*
X266202D01*
Y69989D02*
Y74581D01*
X259315D01*
Y69989D01*
X262759Y74581D02*
Y72285D01*
X259315Y67693D02*
X266202D01*
Y64250D01*
X265055Y63102D01*
X262759D01*
X261611Y64250D01*
Y67693D01*
Y65398D02*
X259315Y63102D01*
X266202Y49327D02*
Y53918D01*
X262759D01*
Y51622D01*
Y53918D01*
X259315D01*
Y47031D02*
X266202D01*
Y43587D01*
X265055Y42439D01*
X262759D01*
X261611Y43587D01*
Y47031D01*
Y44735D02*
X259315Y42439D01*
Y36700D02*
X266202D01*
X262759Y40143D01*
Y35552D01*
X265055Y26368D02*
X266202Y25220D01*
Y22924D01*
X265055Y21777D01*
X260463D01*
X259315Y22924D01*
Y25220D01*
X260463Y26368D01*
X265055D01*
X259315Y19481D02*
X260463D01*
Y18333D01*
X259315D01*
Y19481D01*
Y10297D02*
X266202D01*
X262759Y13741D01*
Y9149D01*
X259315Y6854D02*
X266202D01*
X263907Y4558D01*
X266202Y2262D01*
X259315D01*
Y-34D02*
X266202D01*
X263907Y-2330D01*
X266202Y-4626D01*
X259315D01*
X447889Y115479D02*
X449037Y116627D01*
Y118923D01*
X447889Y120071D01*
X446741D01*
X445593Y118923D01*
Y116627D01*
X444445Y115479D01*
X443297D01*
X442150Y116627D01*
Y118923D01*
X443297Y120071D01*
X449037Y113183D02*
Y108592D01*
Y110888D01*
X442150D01*
X449037Y106296D02*
Y104000D01*
Y105148D01*
X442150D01*
Y106296D01*
Y104000D01*
X449037Y95964D02*
Y100556D01*
X445593D01*
Y98260D01*
Y100556D01*
X442150D01*
X449037Y89077D02*
Y93669D01*
X445593D01*
Y91373D01*
Y93669D01*
X442150D01*
X449037Y82189D02*
Y86781D01*
X442150D01*
Y82189D01*
X445593Y86781D02*
Y84485D01*
X442150Y79894D02*
X449037D01*
X442150Y75302D01*
X449037D01*
Y68414D02*
Y73006D01*
X442150D01*
Y68414D01*
X445593Y73006D02*
Y70710D01*
X442150Y66119D02*
X449037D01*
Y62675D01*
X447889Y61527D01*
X445593D01*
X444445Y62675D01*
Y66119D01*
Y63823D02*
X442150Y61527D01*
X449037Y47752D02*
Y52343D01*
X445593D01*
Y50048D01*
Y52343D01*
X442150D01*
Y45456D02*
X449037D01*
Y42012D01*
X447889Y40864D01*
X445593D01*
X444445Y42012D01*
Y45456D01*
Y43160D02*
X442150Y40864D01*
Y35125D02*
X449037D01*
X445593Y38568D01*
Y33977D01*
X447889Y24793D02*
X449037Y23645D01*
Y21350D01*
X447889Y20202D01*
X443297D01*
X442150Y21350D01*
Y23645D01*
X443297Y24793D01*
X447889D01*
X442150Y17906D02*
X443297D01*
Y16758D01*
X442150D01*
Y17906D01*
Y8722D02*
X449037D01*
X445593Y12166D01*
Y7575D01*
X442150Y5279D02*
X449037D01*
X446741Y2983D01*
X449037Y687D01*
X442150D01*
Y-1609D02*
X449037D01*
X446741Y-3905D01*
X449037Y-6200D01*
X442150D01*
X631114Y117448D02*
X632262Y118596D01*
Y120891D01*
X631114Y122039D01*
X629966D01*
X628818Y120891D01*
Y118596D01*
X627670Y117448D01*
X626522D01*
X625374Y118596D01*
Y120891D01*
X626522Y122039D01*
X632262Y115152D02*
Y110560D01*
Y112856D01*
X625374D01*
X632262Y108264D02*
Y105968D01*
Y107116D01*
X625374D01*
Y108264D01*
Y105968D01*
X632262Y97933D02*
Y102525D01*
X628818D01*
Y100229D01*
Y102525D01*
X625374D01*
X632262Y91045D02*
Y95637D01*
X628818D01*
Y93341D01*
Y95637D01*
X625374D01*
X632262Y84158D02*
Y88750D01*
X625374D01*
Y84158D01*
X628818Y88750D02*
Y86454D01*
X625374Y81862D02*
X632262D01*
X625374Y77270D01*
X632262D01*
Y70383D02*
Y74975D01*
X625374D01*
Y70383D01*
X628818Y74975D02*
Y72679D01*
X625374Y68087D02*
X632262D01*
Y64643D01*
X631114Y63495D01*
X628818D01*
X627670Y64643D01*
Y68087D01*
Y65791D02*
X625374Y63495D01*
X632262Y49720D02*
Y54312D01*
X628818D01*
Y52016D01*
Y54312D01*
X625374D01*
Y47425D02*
X632262D01*
Y43981D01*
X631114Y42833D01*
X628818D01*
X627670Y43981D01*
Y47425D01*
Y45129D02*
X625374Y42833D01*
Y37093D02*
X632262D01*
X628818Y40537D01*
Y35945D01*
X631114Y26762D02*
X632262Y25614D01*
Y23318D01*
X631114Y22170D01*
X626522D01*
X625374Y23318D01*
Y25614D01*
X626522Y26762D01*
X631114D01*
X625374Y19874D02*
X626522D01*
Y18726D01*
X625374D01*
Y19874D01*
Y10691D02*
X632262D01*
X628818Y14135D01*
Y9543D01*
X625374Y7247D02*
X632262D01*
X629966Y4951D01*
X632262Y2655D01*
X625374D01*
Y360D02*
X632262D01*
X629966Y-1936D01*
X632262Y-4232D01*
X625374D01*
D12*
X613548Y75205D02*
G03*
X613548Y44891I15157J-15157D01*
G01*
X643863Y75205D02*
G03*
X613548Y75205I-15157J-15157D01*
G01*
X643863Y44890D02*
G03*
X643863Y75205I-15157J15157D01*
G01*
X613548Y44890D02*
G03*
X643863Y44890I15157J15157D01*
G01*
X65048Y75205D02*
G03*
X65048Y44891I15157J-15157D01*
G01*
X95363Y75205D02*
G03*
X65048Y75205I-15157J-15157D01*
G01*
X95363Y44890D02*
G03*
X95363Y75205I-15157J15157D01*
G01*
X65048Y44890D02*
G03*
X95363Y44890I15157J15157D01*
G01*
X247881Y75205D02*
G03*
X247881Y44891I15157J-15157D01*
G01*
X278196Y75205D02*
G03*
X247881Y75205I-15157J-15157D01*
G01*
X278196Y44890D02*
G03*
X278196Y75205I-15157J15157D01*
G01*
X247881Y44890D02*
G03*
X278196Y44890I15157J15157D01*
G01*
X430715Y75205D02*
G03*
X430715Y44891I15157J-15157D01*
G01*
X461030Y75205D02*
G03*
X430715Y75205I-15157J-15157D01*
G01*
X461030Y44890D02*
G03*
X461029Y75205I-15157J15157D01*
G01*
X430715Y44890D02*
G03*
X461030Y44890I15157J15157D01*
G01*
X654295Y-32D02*
Y118110D01*
X603113D02*
X603114Y0D01*
X471465Y-0D02*
Y118110D01*
X420284Y-0D02*
Y118110D01*
X288630Y-0D02*
Y118110D01*
X237449Y0D02*
Y118110D01*
X105795Y0D02*
Y118110D01*
X54614Y0D02*
Y118110D01*
X471465Y-0D02*
X603114Y0D01*
X463591Y-14756D02*
X471465Y-0D01*
X428158Y-14756D02*
X463591D01*
X420284Y-0D02*
X428158Y-14756D01*
X288630Y-0D02*
X420284D01*
X280756Y-14756D02*
X288630Y-0D01*
X245323Y-14756D02*
X280756D01*
X237449Y0D02*
X245323Y-14756D01*
X105795Y0D02*
X237449D01*
X97921Y-14756D02*
X105795Y0D01*
X62488Y-14756D02*
X97921D01*
X54614Y0D02*
X62488Y-14756D01*
X0Y0D02*
X54614D01*
X0D02*
Y118110D01*
X54614D01*
X62488Y132882D01*
X97921D01*
X105795Y118110D01*
X237449D01*
X245323Y132882D01*
X280756D01*
X288630Y118110D01*
X420284D01*
X428158Y132882D01*
X463591D01*
X471465Y118110D01*
X603114D01*
X610988Y132882D01*
X646421D01*
X654295Y118110D01*
X708661D01*
Y0D02*
Y118110D01*
X654295Y-32D02*
X708661Y0D01*
X646421Y-14756D02*
X654295Y-32D01*
X610988Y-14756D02*
X646421D01*
X603114Y0D02*
X610988Y-14756D01*
D36*
X-685Y208403D02*
Y196596D01*
Y202499D01*
X7187D01*
Y208403D01*
Y196596D01*
X11122D02*
Y204467D01*
X15058Y208403D01*
X18994Y204467D01*
Y196596D01*
Y202499D01*
X11122D01*
X22930Y196596D02*
Y208403D01*
X28833D01*
X30801Y206435D01*
Y202499D01*
X28833Y200532D01*
X22930D01*
X34737Y208403D02*
X42608D01*
X38673D01*
Y196596D01*
X46544Y208403D02*
X50480D01*
X48512D01*
Y196596D01*
X46544D01*
X50480D01*
X64255Y206435D02*
X62287Y208403D01*
X58351D01*
X56383Y206435D01*
Y198564D01*
X58351Y196596D01*
X62287D01*
X64255Y198564D01*
X79998Y208403D02*
Y196596D01*
X85901D01*
X87869Y198564D01*
Y200532D01*
X85901Y202499D01*
X79998D01*
X85901D01*
X87869Y204467D01*
Y206435D01*
X85901Y208403D01*
X79998D01*
X99676D02*
X91805D01*
Y196596D01*
X99676D01*
X91805Y202499D02*
X95741D01*
X103612Y208403D02*
Y196596D01*
X111484D01*
X115419Y208403D02*
X123291D01*
X119355D01*
Y196596D01*
X139034D02*
X146905Y204467D01*
X150841Y196596D02*
X158712Y204467D01*
X174455Y208403D02*
Y196596D01*
Y202499D01*
X182327D01*
Y208403D01*
Y196596D01*
X186263D02*
Y204467D01*
X190198Y208403D01*
X194134Y204467D01*
Y196596D01*
Y202499D01*
X186263D01*
X198070Y196596D02*
Y208403D01*
X203973D01*
X205941Y206435D01*
Y202499D01*
X203973Y200532D01*
X198070D01*
X209877Y208403D02*
X217748D01*
X213813D01*
Y196596D01*
X221684Y208403D02*
X225620D01*
X223652D01*
Y196596D01*
X221684D01*
X225620D01*
X239395Y206435D02*
X237427Y208403D01*
X233491D01*
X231523Y206435D01*
Y198564D01*
X233491Y196596D01*
X237427D01*
X239395Y198564D01*
X255138Y196596D02*
Y208403D01*
X259074Y204467D01*
X263009Y208403D01*
Y196596D01*
X272849Y208403D02*
X268913D01*
X266945Y206435D01*
Y198564D01*
X268913Y196596D01*
X272849D01*
X274817Y198564D01*
Y206435D01*
X272849Y208403D01*
X278752D02*
Y196596D01*
X284656D01*
X286624Y198564D01*
Y206435D01*
X284656Y208403D01*
X278752D01*
X290560D02*
Y198564D01*
X292527Y196596D01*
X296463D01*
X298431Y198564D01*
Y208403D01*
X302367D02*
Y196596D01*
X310238D01*
X322045Y208403D02*
X314174D01*
Y196596D01*
X322045D01*
X314174Y202499D02*
X318110D01*
X337788Y196596D02*
X345660Y204467D01*
X349595Y196596D02*
X357467Y204467D01*
X373210Y196596D02*
Y208403D01*
X379114D01*
X381081Y206435D01*
Y202499D01*
X379114Y200532D01*
X373210D01*
X390921Y208403D02*
X386985D01*
X385017Y206435D01*
Y198564D01*
X386985Y196596D01*
X390921D01*
X392889Y198564D01*
Y206435D01*
X390921Y208403D01*
X396824Y202499D02*
X404696D01*
X416503Y206435D02*
X414535Y208403D01*
X410599D01*
X408632Y206435D01*
Y204467D01*
X410599Y202499D01*
X414535D01*
X416503Y200532D01*
Y198564D01*
X414535Y196596D01*
X410599D01*
X408632Y198564D01*
X420439Y208403D02*
Y196596D01*
Y202499D01*
X428310D01*
Y208403D01*
Y196596D01*
X440117Y208403D02*
X432246D01*
Y196596D01*
X440117D01*
X432246Y202499D02*
X436182D01*
X444053Y196596D02*
Y208403D01*
X451925Y196596D01*
Y208403D01*
X463732Y206435D02*
X461764Y208403D01*
X457828D01*
X455860Y206435D01*
Y198564D01*
X457828Y196596D01*
X461764D01*
X463732Y198564D01*
Y202499D01*
X459796D01*
X487346Y206435D02*
X485378Y208403D01*
X481443D01*
X479475Y206435D01*
Y198564D01*
X481443Y196596D01*
X485378D01*
X487346Y198564D01*
X491282Y208403D02*
Y196596D01*
Y202499D01*
X499153D01*
Y208403D01*
Y196596D01*
X510961Y208403D02*
X503089D01*
Y196596D01*
X510961D01*
X503089Y202499D02*
X507025D01*
X514896Y196596D02*
Y208403D01*
X522768Y196596D01*
Y208403D01*
X534575Y206435D02*
X532607Y208403D01*
X528671D01*
X526704Y206435D01*
Y198564D01*
X528671Y196596D01*
X532607D01*
X534575Y198564D01*
Y202499D01*
X530639D01*
M02*
