G04*
G04 #@! TF.GenerationSoftware,Altium Limited,Altium Designer,24.10.1 (45)*
G04*
G04 Layer_Color=16711935*
%FSLAX25Y25*%
%MOIN*%
G70*
G04*
G04 #@! TF.SameCoordinates,C14CE507-BBC2-466D-ADCE-259A0BF978C6*
G04*
G04*
G04 #@! TF.FilePolarity,Negative*
G04*
G01*
G75*
%ADD28C,0.06800*%
%ADD29C,0.10800*%
%ADD30C,0.03400*%
%ADD31C,0.03398*%
%ADD32C,0.05800*%
D28*
X549500Y60500D02*
D03*
X539500D02*
D03*
X398500Y37000D02*
D03*
X388500D02*
D03*
X320500D02*
D03*
X310500D02*
D03*
X171000Y69000D02*
D03*
X191000D02*
D03*
X181000D02*
D03*
X161000D02*
D03*
Y59000D02*
D03*
X171000D02*
D03*
D29*
X640909Y124221D02*
D03*
X616500D02*
D03*
X640909Y-6095D02*
D03*
X616500D02*
D03*
X458079D02*
D03*
X433669D02*
D03*
X458079Y124221D02*
D03*
X433669D02*
D03*
X275244Y-6095D02*
D03*
X250835D02*
D03*
X275244Y124221D02*
D03*
X250835D02*
D03*
X92409Y-6095D02*
D03*
X68000D02*
D03*
X92409Y124221D02*
D03*
X68000D02*
D03*
D30*
X343500Y44500D02*
D03*
X406000Y94000D02*
D03*
X401500Y80500D02*
D03*
X394000D02*
D03*
X339500Y62500D02*
D03*
X342000Y84000D02*
D03*
X326000D02*
D03*
X484741Y80909D02*
D03*
X309500Y54000D02*
D03*
X113000Y88000D02*
D03*
X171500Y83500D02*
D03*
X248866Y88587D02*
D03*
X308056Y68373D02*
D03*
X528500Y88500D02*
D03*
X393000Y55500D02*
D03*
X374943Y46943D02*
D03*
X374500Y55000D02*
D03*
X581500Y41000D02*
D03*
X484460D02*
D03*
X478000D02*
D03*
X274457Y38000D02*
D03*
X215500Y39500D02*
D03*
X69181Y37606D02*
D03*
X565500Y81000D02*
D03*
X161000Y22500D02*
D03*
X164500Y88500D02*
D03*
X242961Y44299D02*
D03*
X122000Y40000D02*
D03*
X98709Y38394D02*
D03*
X115000Y31500D02*
D03*
X210000Y33500D02*
D03*
X247685Y30913D02*
D03*
X248472Y35638D02*
D03*
X649571Y83276D02*
D03*
X646028Y33669D02*
D03*
X62882Y32882D02*
D03*
X63669Y84063D02*
D03*
X147500Y31000D02*
D03*
X477500Y30500D02*
D03*
X618469Y87606D02*
D03*
X566000Y31000D02*
D03*
X596500Y30500D02*
D03*
X512000D02*
D03*
X378500Y66000D02*
D03*
X376000Y88000D02*
D03*
X371500Y30500D02*
D03*
X332500D02*
D03*
X318000Y88500D02*
D03*
X326000Y94500D02*
D03*
X337000Y77000D02*
D03*
X337500Y53500D02*
D03*
X338444Y70000D02*
D03*
X324213Y71500D02*
D03*
X640516Y38394D02*
D03*
X612563Y38787D02*
D03*
X575000Y88000D02*
D03*
X573500Y67000D02*
D03*
X580707Y84824D02*
D03*
X479000Y89000D02*
D03*
X434188Y37481D02*
D03*
X477500Y65500D02*
D03*
X205000Y88000D02*
D03*
X205500Y62000D02*
D03*
X214500Y71000D02*
D03*
X113500Y63000D02*
D03*
X123000Y71500D02*
D03*
D31*
X607445Y45087D02*
D03*
D32*
X507000Y44500D02*
D03*
X226500Y55000D02*
D03*
X143000Y44500D02*
D03*
X133500Y54500D02*
D03*
X373000Y77500D02*
D03*
X356000Y76500D02*
D03*
X497500Y55500D02*
D03*
X24000Y59043D02*
D03*
X13914Y59500D02*
D03*
X682000Y58000D02*
D03*
X692586Y59000D02*
D03*
X592500Y55500D02*
D03*
M02*
