G04*
G04 #@! TF.GenerationSoftware,Altium Limited,Altium Designer,24.10.1 (45)*
G04*
G04 Layer_Color=8388736*
%FSLAX25Y25*%
%MOIN*%
G70*
G04*
G04 #@! TF.SameCoordinates,FEB186AE-86F8-48D3-B7AD-D45B87300DC1*
G04*
G04*
G04 #@! TF.FilePolarity,Negative*
G04*
G01*
G75*
%ADD17R,0.05512X0.03740*%
%ADD20R,0.03150X0.03543*%
%ADD21R,0.03740X0.05512*%
%ADD23R,0.11624X0.08868*%
%ADD24R,0.08080X0.02962*%
%ADD25O,0.01581X0.07093*%
%ADD26O,0.05912X0.01778*%
%ADD27R,0.03950X0.04737*%
%ADD28C,0.06800*%
%ADD29C,0.10800*%
%ADD30C,0.03400*%
%ADD31C,0.03398*%
%ADD32C,0.05800*%
G36*
X78289Y28949D02*
X78340Y28938D01*
X78390Y28921D01*
X78437Y28898D01*
X78480Y28869D01*
X78520Y28835D01*
X78554Y28795D01*
X78583Y28752D01*
X78607Y28705D01*
X78623Y28655D01*
X78634Y28604D01*
X78637Y28551D01*
X78637Y23433D01*
X78634Y23381D01*
X78623Y23329D01*
X78607Y23280D01*
X78583Y23233D01*
X78554Y23189D01*
X78520Y23150D01*
X78480Y23115D01*
X78437Y23086D01*
X78390Y23063D01*
X78340Y23046D01*
X78289Y23036D01*
X78236Y23032D01*
X71937D01*
X71885Y23036D01*
X71833Y23046D01*
X71784Y23063D01*
X71737Y23086D01*
X71693Y23115D01*
X71653Y23150D01*
X71619Y23189D01*
X71590Y23233D01*
X71567Y23280D01*
X71550Y23329D01*
X71540Y23381D01*
X71536Y23433D01*
Y28551D01*
X71540Y28604D01*
X71550Y28655D01*
X71567Y28705D01*
X71590Y28752D01*
X71619Y28795D01*
X71653Y28835D01*
X71693Y28869D01*
X71737Y28898D01*
X71784Y28921D01*
X71833Y28938D01*
X71885Y28949D01*
X71937Y28952D01*
X78236D01*
X78289Y28949D01*
D02*
G37*
G36*
Y36823D02*
X78340Y36812D01*
X78390Y36795D01*
X78437Y36772D01*
X78480Y36743D01*
X78520Y36709D01*
X78554Y36669D01*
X78583Y36626D01*
X78607Y36579D01*
X78623Y36529D01*
X78634Y36478D01*
X78637Y36425D01*
Y31307D01*
X78634Y31255D01*
X78623Y31203D01*
X78607Y31154D01*
X78583Y31107D01*
X78554Y31063D01*
X78520Y31024D01*
X78480Y30989D01*
X78437Y30960D01*
X78390Y30937D01*
X78340Y30920D01*
X78289Y30910D01*
X78236Y30906D01*
X71937D01*
X71885Y30910D01*
X71833Y30920D01*
X71784Y30937D01*
X71737Y30960D01*
X71693Y30989D01*
X71653Y31024D01*
X71619Y31063D01*
X71590Y31107D01*
X71567Y31154D01*
X71550Y31203D01*
X71540Y31255D01*
X71536Y31307D01*
Y36425D01*
X71540Y36478D01*
X71550Y36529D01*
X71567Y36579D01*
X71590Y36626D01*
X71619Y36669D01*
X71653Y36709D01*
X71693Y36743D01*
X71737Y36772D01*
X71784Y36795D01*
X71833Y36812D01*
X71885Y36823D01*
X71937Y36826D01*
X78236D01*
X78289Y36823D01*
D02*
G37*
G36*
X88525Y28949D02*
X88576Y28938D01*
X88626Y28921D01*
X88673Y28898D01*
X88717Y28869D01*
X88756Y28835D01*
X88790Y28795D01*
X88820Y28752D01*
X88843Y28705D01*
X88860Y28655D01*
X88870Y28604D01*
X88873Y28551D01*
X88873Y23433D01*
X88870Y23381D01*
X88860Y23329D01*
X88843Y23280D01*
X88820Y23233D01*
X88790Y23189D01*
X88756Y23150D01*
X88716Y23115D01*
X88673Y23086D01*
X88626Y23063D01*
X88576Y23046D01*
X88525Y23036D01*
X88472Y23032D01*
X82173D01*
X82121Y23036D01*
X82069Y23046D01*
X82020Y23063D01*
X81973Y23086D01*
X81929Y23115D01*
X81890Y23150D01*
X81855Y23189D01*
X81826Y23233D01*
X81803Y23280D01*
X81786Y23329D01*
X81776Y23381D01*
X81772Y23433D01*
Y28551D01*
X81776Y28604D01*
X81786Y28655D01*
X81803Y28705D01*
X81826Y28752D01*
X81855Y28795D01*
X81890Y28835D01*
X81929Y28869D01*
X81973Y28898D01*
X82020Y28921D01*
X82069Y28938D01*
X82121Y28949D01*
X82173Y28952D01*
X88472D01*
X88525Y28949D01*
D02*
G37*
G36*
Y36823D02*
X88576Y36812D01*
X88626Y36795D01*
X88673Y36772D01*
X88717Y36743D01*
X88756Y36709D01*
X88790Y36669D01*
X88820Y36626D01*
X88843Y36579D01*
X88860Y36529D01*
X88870Y36478D01*
X88873Y36425D01*
Y31307D01*
X88870Y31255D01*
X88860Y31203D01*
X88843Y31154D01*
X88820Y31107D01*
X88790Y31063D01*
X88756Y31024D01*
X88717Y30989D01*
X88673Y30960D01*
X88626Y30937D01*
X88576Y30920D01*
X88525Y30910D01*
X88472Y30906D01*
X82173D01*
X82121Y30910D01*
X82069Y30920D01*
X82020Y30937D01*
X81973Y30960D01*
X81929Y30989D01*
X81890Y31024D01*
X81855Y31063D01*
X81826Y31107D01*
X81803Y31154D01*
X81786Y31203D01*
X81776Y31255D01*
X81772Y31307D01*
Y36425D01*
X81776Y36478D01*
X81786Y36529D01*
X81803Y36579D01*
X81826Y36626D01*
X81855Y36669D01*
X81890Y36709D01*
X81929Y36743D01*
X81973Y36772D01*
X82020Y36795D01*
X82069Y36812D01*
X82121Y36823D01*
X82173Y36826D01*
X88472D01*
X88525Y36823D01*
D02*
G37*
G36*
X261123Y28949D02*
X261175Y28938D01*
X261224Y28921D01*
X261271Y28898D01*
X261315Y28869D01*
X261354Y28835D01*
X261389Y28795D01*
X261418Y28752D01*
X261441Y28705D01*
X261458Y28655D01*
X261468Y28604D01*
X261472Y28551D01*
X261472Y23433D01*
X261468Y23381D01*
X261458Y23329D01*
X261441Y23280D01*
X261418Y23233D01*
X261389Y23189D01*
X261354Y23150D01*
X261315Y23115D01*
X261271Y23086D01*
X261224Y23063D01*
X261175Y23046D01*
X261123Y23036D01*
X261071Y23032D01*
X254772D01*
X254719Y23036D01*
X254668Y23046D01*
X254618Y23063D01*
X254571Y23086D01*
X254528Y23115D01*
X254488Y23150D01*
X254454Y23189D01*
X254425Y23233D01*
X254401Y23280D01*
X254384Y23329D01*
X254374Y23381D01*
X254371Y23433D01*
Y28551D01*
X254374Y28604D01*
X254384Y28655D01*
X254401Y28705D01*
X254425Y28752D01*
X254454Y28795D01*
X254488Y28835D01*
X254528Y28869D01*
X254571Y28898D01*
X254618Y28921D01*
X254668Y28938D01*
X254719Y28949D01*
X254772Y28952D01*
X261071D01*
X261123Y28949D01*
D02*
G37*
G36*
Y36823D02*
X261175Y36812D01*
X261224Y36795D01*
X261271Y36772D01*
X261315Y36743D01*
X261354Y36709D01*
X261389Y36669D01*
X261418Y36626D01*
X261441Y36579D01*
X261458Y36529D01*
X261468Y36478D01*
X261472Y36425D01*
Y31307D01*
X261468Y31255D01*
X261458Y31203D01*
X261441Y31154D01*
X261418Y31107D01*
X261389Y31063D01*
X261354Y31024D01*
X261315Y30989D01*
X261271Y30960D01*
X261224Y30937D01*
X261175Y30920D01*
X261123Y30910D01*
X261071Y30906D01*
X254772D01*
X254719Y30910D01*
X254668Y30920D01*
X254618Y30937D01*
X254571Y30960D01*
X254528Y30989D01*
X254488Y31024D01*
X254454Y31063D01*
X254425Y31107D01*
X254401Y31154D01*
X254384Y31203D01*
X254374Y31255D01*
X254371Y31307D01*
Y36425D01*
X254374Y36478D01*
X254384Y36529D01*
X254401Y36579D01*
X254425Y36626D01*
X254454Y36669D01*
X254488Y36709D01*
X254528Y36743D01*
X254571Y36772D01*
X254618Y36795D01*
X254668Y36812D01*
X254719Y36823D01*
X254772Y36826D01*
X261071D01*
X261123Y36823D01*
D02*
G37*
G36*
X271359Y28949D02*
X271411Y28938D01*
X271461Y28921D01*
X271508Y28898D01*
X271551Y28869D01*
X271590Y28835D01*
X271625Y28795D01*
X271654Y28752D01*
X271677Y28705D01*
X271694Y28655D01*
X271705Y28604D01*
X271708Y28551D01*
X271708Y23433D01*
X271705Y23381D01*
X271694Y23329D01*
X271677Y23280D01*
X271654Y23233D01*
X271625Y23189D01*
X271590Y23150D01*
X271551Y23115D01*
X271508Y23086D01*
X271461Y23063D01*
X271411Y23046D01*
X271359Y23036D01*
X271307Y23032D01*
X265008D01*
X264955Y23036D01*
X264904Y23046D01*
X264855Y23063D01*
X264807Y23086D01*
X264764Y23115D01*
X264724Y23150D01*
X264690Y23189D01*
X264661Y23233D01*
X264637Y23280D01*
X264621Y23329D01*
X264610Y23381D01*
X264607Y23433D01*
Y28551D01*
X264610Y28604D01*
X264621Y28655D01*
X264637Y28705D01*
X264661Y28752D01*
X264690Y28795D01*
X264724Y28835D01*
X264764Y28869D01*
X264807Y28898D01*
X264855Y28921D01*
X264904Y28938D01*
X264955Y28949D01*
X265008Y28952D01*
X271307D01*
X271359Y28949D01*
D02*
G37*
G36*
Y36823D02*
X271411Y36812D01*
X271461Y36795D01*
X271508Y36772D01*
X271551Y36743D01*
X271590Y36709D01*
X271625Y36669D01*
X271654Y36626D01*
X271677Y36579D01*
X271694Y36529D01*
X271705Y36478D01*
X271708Y36425D01*
Y31307D01*
X271705Y31255D01*
X271694Y31203D01*
X271677Y31154D01*
X271654Y31107D01*
X271625Y31063D01*
X271590Y31024D01*
X271551Y30989D01*
X271508Y30960D01*
X271461Y30937D01*
X271411Y30920D01*
X271359Y30910D01*
X271307Y30906D01*
X265008D01*
X264955Y30910D01*
X264904Y30920D01*
X264855Y30937D01*
X264807Y30960D01*
X264764Y30989D01*
X264724Y31024D01*
X264690Y31063D01*
X264661Y31107D01*
X264637Y31154D01*
X264621Y31203D01*
X264610Y31255D01*
X264607Y31307D01*
Y36425D01*
X264610Y36478D01*
X264621Y36529D01*
X264637Y36579D01*
X264661Y36626D01*
X264690Y36669D01*
X264724Y36709D01*
X264764Y36743D01*
X264807Y36772D01*
X264855Y36795D01*
X264904Y36812D01*
X264955Y36823D01*
X265008Y36826D01*
X271307D01*
X271359Y36823D01*
D02*
G37*
G36*
X443958Y28949D02*
X444009Y28938D01*
X444059Y28921D01*
X444106Y28898D01*
X444149Y28869D01*
X444189Y28835D01*
X444223Y28795D01*
X444253Y28752D01*
X444276Y28705D01*
X444293Y28655D01*
X444303Y28604D01*
X444306Y28551D01*
X444306Y23433D01*
X444303Y23381D01*
X444293Y23329D01*
X444276Y23280D01*
X444253Y23233D01*
X444223Y23189D01*
X444189Y23150D01*
X444149Y23115D01*
X444106Y23086D01*
X444059Y23063D01*
X444009Y23046D01*
X443958Y23036D01*
X443905Y23032D01*
X437606D01*
X437554Y23036D01*
X437502Y23046D01*
X437453Y23063D01*
X437406Y23086D01*
X437362Y23115D01*
X437323Y23150D01*
X437288Y23189D01*
X437259Y23233D01*
X437236Y23280D01*
X437219Y23329D01*
X437209Y23381D01*
X437205Y23433D01*
Y28551D01*
X437209Y28604D01*
X437219Y28655D01*
X437236Y28705D01*
X437259Y28752D01*
X437288Y28795D01*
X437323Y28835D01*
X437362Y28869D01*
X437406Y28898D01*
X437453Y28921D01*
X437502Y28938D01*
X437554Y28949D01*
X437606Y28952D01*
X443905D01*
X443958Y28949D01*
D02*
G37*
G36*
Y36823D02*
X444009Y36812D01*
X444059Y36795D01*
X444106Y36772D01*
X444149Y36743D01*
X444189Y36709D01*
X444223Y36669D01*
X444253Y36626D01*
X444276Y36579D01*
X444293Y36529D01*
X444303Y36478D01*
X444306Y36425D01*
Y31307D01*
X444303Y31255D01*
X444293Y31203D01*
X444276Y31154D01*
X444253Y31107D01*
X444223Y31063D01*
X444189Y31024D01*
X444149Y30989D01*
X444106Y30960D01*
X444059Y30937D01*
X444009Y30920D01*
X443958Y30910D01*
X443905Y30906D01*
X437606D01*
X437554Y30910D01*
X437502Y30920D01*
X437453Y30937D01*
X437406Y30960D01*
X437362Y30989D01*
X437323Y31024D01*
X437288Y31063D01*
X437259Y31107D01*
X437236Y31154D01*
X437219Y31203D01*
X437209Y31255D01*
X437205Y31307D01*
Y36425D01*
X437209Y36478D01*
X437219Y36529D01*
X437236Y36579D01*
X437259Y36626D01*
X437288Y36669D01*
X437323Y36709D01*
X437362Y36743D01*
X437406Y36772D01*
X437453Y36795D01*
X437502Y36812D01*
X437554Y36823D01*
X437606Y36826D01*
X443905D01*
X443958Y36823D01*
D02*
G37*
G36*
X454194Y28949D02*
X454246Y28938D01*
X454295Y28921D01*
X454342Y28898D01*
X454386Y28869D01*
X454425Y28835D01*
X454460Y28795D01*
X454489Y28752D01*
X454512Y28705D01*
X454529Y28655D01*
X454539Y28604D01*
X454543Y28551D01*
X454543Y23433D01*
X454539Y23381D01*
X454529Y23329D01*
X454512Y23280D01*
X454489Y23233D01*
X454460Y23189D01*
X454425Y23150D01*
X454386Y23115D01*
X454342Y23086D01*
X454295Y23063D01*
X454246Y23046D01*
X454194Y23036D01*
X454142Y23032D01*
X447843D01*
X447790Y23036D01*
X447739Y23046D01*
X447689Y23063D01*
X447642Y23086D01*
X447599Y23115D01*
X447559Y23150D01*
X447524Y23189D01*
X447495Y23233D01*
X447472Y23280D01*
X447455Y23329D01*
X447445Y23381D01*
X447442Y23433D01*
Y28551D01*
X447445Y28604D01*
X447455Y28655D01*
X447472Y28705D01*
X447495Y28752D01*
X447524Y28795D01*
X447559Y28835D01*
X447599Y28869D01*
X447642Y28898D01*
X447689Y28921D01*
X447739Y28938D01*
X447790Y28949D01*
X447843Y28952D01*
X454142D01*
X454194Y28949D01*
D02*
G37*
G36*
Y36823D02*
X454246Y36812D01*
X454295Y36795D01*
X454342Y36772D01*
X454386Y36743D01*
X454425Y36709D01*
X454460Y36669D01*
X454489Y36626D01*
X454512Y36579D01*
X454529Y36529D01*
X454539Y36478D01*
X454543Y36425D01*
Y31307D01*
X454539Y31255D01*
X454529Y31203D01*
X454512Y31154D01*
X454489Y31107D01*
X454460Y31063D01*
X454425Y31024D01*
X454386Y30989D01*
X454342Y30960D01*
X454295Y30937D01*
X454246Y30920D01*
X454194Y30910D01*
X454142Y30906D01*
X447843D01*
X447790Y30910D01*
X447739Y30920D01*
X447689Y30937D01*
X447642Y30960D01*
X447599Y30989D01*
X447559Y31024D01*
X447524Y31063D01*
X447495Y31107D01*
X447472Y31154D01*
X447455Y31203D01*
X447445Y31255D01*
X447442Y31307D01*
Y36425D01*
X447445Y36478D01*
X447455Y36529D01*
X447472Y36579D01*
X447495Y36626D01*
X447524Y36669D01*
X447559Y36709D01*
X447599Y36743D01*
X447642Y36772D01*
X447689Y36795D01*
X447739Y36812D01*
X447790Y36823D01*
X447843Y36826D01*
X454142D01*
X454194Y36823D01*
D02*
G37*
G36*
X626789Y28949D02*
X626840Y28938D01*
X626890Y28921D01*
X626937Y28898D01*
X626980Y28869D01*
X627020Y28835D01*
X627054Y28795D01*
X627083Y28752D01*
X627107Y28705D01*
X627123Y28655D01*
X627134Y28604D01*
X627137Y28551D01*
X627137Y23433D01*
X627134Y23381D01*
X627123Y23329D01*
X627107Y23280D01*
X627083Y23233D01*
X627054Y23189D01*
X627020Y23150D01*
X626980Y23115D01*
X626937Y23086D01*
X626890Y23063D01*
X626840Y23046D01*
X626789Y23036D01*
X626736Y23032D01*
X620437D01*
X620385Y23036D01*
X620333Y23046D01*
X620284Y23063D01*
X620237Y23086D01*
X620193Y23115D01*
X620154Y23150D01*
X620119Y23189D01*
X620090Y23233D01*
X620067Y23280D01*
X620050Y23329D01*
X620040Y23381D01*
X620036Y23433D01*
Y28551D01*
X620040Y28604D01*
X620050Y28655D01*
X620067Y28705D01*
X620090Y28752D01*
X620119Y28795D01*
X620154Y28835D01*
X620193Y28869D01*
X620237Y28898D01*
X620284Y28921D01*
X620333Y28938D01*
X620385Y28949D01*
X620437Y28952D01*
X626736D01*
X626789Y28949D01*
D02*
G37*
G36*
Y36823D02*
X626840Y36812D01*
X626890Y36795D01*
X626937Y36772D01*
X626980Y36743D01*
X627020Y36709D01*
X627054Y36669D01*
X627083Y36626D01*
X627107Y36579D01*
X627123Y36529D01*
X627134Y36478D01*
X627137Y36425D01*
Y31307D01*
X627134Y31255D01*
X627123Y31203D01*
X627107Y31154D01*
X627083Y31107D01*
X627054Y31063D01*
X627020Y31024D01*
X626980Y30989D01*
X626937Y30960D01*
X626890Y30937D01*
X626840Y30920D01*
X626789Y30910D01*
X626736Y30906D01*
X620437D01*
X620385Y30910D01*
X620333Y30920D01*
X620284Y30937D01*
X620237Y30960D01*
X620193Y30989D01*
X620154Y31024D01*
X620119Y31063D01*
X620090Y31107D01*
X620067Y31154D01*
X620050Y31203D01*
X620040Y31255D01*
X620036Y31307D01*
Y36425D01*
X620040Y36478D01*
X620050Y36529D01*
X620067Y36579D01*
X620090Y36626D01*
X620119Y36669D01*
X620154Y36709D01*
X620193Y36743D01*
X620237Y36772D01*
X620284Y36795D01*
X620333Y36812D01*
X620385Y36823D01*
X620437Y36826D01*
X626736D01*
X626789Y36823D01*
D02*
G37*
G36*
X637025Y28949D02*
X637076Y28938D01*
X637126Y28921D01*
X637173Y28898D01*
X637217Y28869D01*
X637256Y28835D01*
X637290Y28795D01*
X637320Y28752D01*
X637343Y28705D01*
X637360Y28655D01*
X637370Y28604D01*
X637373Y28551D01*
X637373Y23433D01*
X637370Y23381D01*
X637360Y23329D01*
X637343Y23280D01*
X637320Y23233D01*
X637290Y23189D01*
X637256Y23150D01*
X637216Y23115D01*
X637173Y23086D01*
X637126Y23063D01*
X637076Y23046D01*
X637025Y23036D01*
X636972Y23032D01*
X630673D01*
X630621Y23036D01*
X630570Y23046D01*
X630520Y23063D01*
X630473Y23086D01*
X630429Y23115D01*
X630390Y23150D01*
X630355Y23189D01*
X630326Y23233D01*
X630303Y23280D01*
X630286Y23329D01*
X630276Y23381D01*
X630272Y23433D01*
Y28551D01*
X630276Y28604D01*
X630286Y28655D01*
X630303Y28705D01*
X630326Y28752D01*
X630355Y28795D01*
X630390Y28835D01*
X630429Y28869D01*
X630473Y28898D01*
X630520Y28921D01*
X630570Y28938D01*
X630621Y28949D01*
X630673Y28952D01*
X636972D01*
X637025Y28949D01*
D02*
G37*
G36*
Y36823D02*
X637076Y36812D01*
X637126Y36795D01*
X637173Y36772D01*
X637217Y36743D01*
X637256Y36709D01*
X637290Y36669D01*
X637320Y36626D01*
X637343Y36579D01*
X637360Y36529D01*
X637370Y36478D01*
X637373Y36425D01*
Y31307D01*
X637370Y31255D01*
X637360Y31203D01*
X637343Y31154D01*
X637320Y31107D01*
X637290Y31063D01*
X637256Y31024D01*
X637217Y30989D01*
X637173Y30960D01*
X637126Y30937D01*
X637076Y30920D01*
X637025Y30910D01*
X636972Y30906D01*
X630673D01*
X630621Y30910D01*
X630570Y30920D01*
X630520Y30937D01*
X630473Y30960D01*
X630429Y30989D01*
X630390Y31024D01*
X630355Y31063D01*
X630326Y31107D01*
X630303Y31154D01*
X630286Y31203D01*
X630276Y31255D01*
X630272Y31307D01*
Y36425D01*
X630276Y36478D01*
X630286Y36529D01*
X630303Y36579D01*
X630326Y36626D01*
X630355Y36669D01*
X630390Y36709D01*
X630429Y36743D01*
X630473Y36772D01*
X630520Y36795D01*
X630570Y36812D01*
X630621Y36823D01*
X630673Y36826D01*
X636972D01*
X637025Y36823D01*
D02*
G37*
D17*
X226500Y42858D02*
D03*
Y50142D02*
D03*
Y67142D02*
D03*
Y59858D02*
D03*
X592500Y43358D02*
D03*
Y50642D02*
D03*
Y60358D02*
D03*
Y67642D02*
D03*
X497500Y43358D02*
D03*
Y50642D02*
D03*
Y60358D02*
D03*
Y67642D02*
D03*
X133500Y42358D02*
D03*
Y49642D02*
D03*
Y66642D02*
D03*
Y59358D02*
D03*
D20*
X480000Y72654D02*
D03*
Y79346D02*
D03*
X489500D02*
D03*
Y72654D02*
D03*
X128500Y74654D02*
D03*
Y81346D02*
D03*
X401500Y91346D02*
D03*
Y84654D02*
D03*
X394000D02*
D03*
Y91346D02*
D03*
X386500Y84654D02*
D03*
Y91346D02*
D03*
X117500Y74500D02*
D03*
Y81193D02*
D03*
X219000Y79847D02*
D03*
Y73154D02*
D03*
X338000Y86000D02*
D03*
Y92693D02*
D03*
X330500Y86000D02*
D03*
Y92693D02*
D03*
X576075Y73815D02*
D03*
Y80508D02*
D03*
X585500Y80346D02*
D03*
Y73654D02*
D03*
X209500Y79847D02*
D03*
Y73154D02*
D03*
D21*
X368142Y77500D02*
D03*
X360858D02*
D03*
D23*
X681850Y81744D02*
D03*
Y37256D02*
D03*
X26650D02*
D03*
Y81744D02*
D03*
D24*
X672598Y69343D02*
D03*
Y65406D02*
D03*
Y61469D02*
D03*
Y57532D02*
D03*
Y53595D02*
D03*
Y49658D02*
D03*
X35902Y49657D02*
D03*
Y53594D02*
D03*
Y57531D02*
D03*
Y61468D02*
D03*
Y65405D02*
D03*
Y69343D02*
D03*
D25*
X218437Y62071D02*
D03*
X216469D02*
D03*
X214500D02*
D03*
X212532D02*
D03*
X210563D02*
D03*
Y45929D02*
D03*
X212532D02*
D03*
X214500D02*
D03*
X216469D02*
D03*
X218437D02*
D03*
X125937Y62000D02*
D03*
X123969D02*
D03*
X122000D02*
D03*
X120031D02*
D03*
X118063D02*
D03*
Y45858D02*
D03*
X120031D02*
D03*
X122000D02*
D03*
X123969D02*
D03*
X125937D02*
D03*
X488437Y47429D02*
D03*
X486469D02*
D03*
X484500D02*
D03*
X482532D02*
D03*
X480563D02*
D03*
Y63571D02*
D03*
X482532D02*
D03*
X484500D02*
D03*
X486469D02*
D03*
X488437D02*
D03*
X584252Y47854D02*
D03*
X582284D02*
D03*
X580315D02*
D03*
X578347D02*
D03*
X576378D02*
D03*
Y63996D02*
D03*
X578347D02*
D03*
X580315D02*
D03*
X582284D02*
D03*
X584252D02*
D03*
D26*
X367024Y70516D02*
D03*
Y67957D02*
D03*
Y65398D02*
D03*
Y62839D02*
D03*
Y60280D02*
D03*
Y57720D02*
D03*
Y55161D02*
D03*
Y52602D02*
D03*
Y50043D02*
D03*
Y47484D02*
D03*
X344976D02*
D03*
Y50043D02*
D03*
Y52602D02*
D03*
Y55161D02*
D03*
Y57720D02*
D03*
Y60280D02*
D03*
Y62839D02*
D03*
Y65398D02*
D03*
Y67957D02*
D03*
Y70516D02*
D03*
D27*
X320406Y77000D02*
D03*
X314500D02*
D03*
X320406Y71500D02*
D03*
X314500D02*
D03*
X320453Y66000D02*
D03*
X314547D02*
D03*
X331953Y77000D02*
D03*
X326047D02*
D03*
X333906Y71500D02*
D03*
X328000D02*
D03*
X331953Y66000D02*
D03*
X326047D02*
D03*
D28*
X549500Y60500D02*
D03*
X539500D02*
D03*
X398500Y37000D02*
D03*
X388500D02*
D03*
X320500D02*
D03*
X310500D02*
D03*
X171000Y69000D02*
D03*
X191000D02*
D03*
X181000D02*
D03*
X161000D02*
D03*
Y59000D02*
D03*
X171000D02*
D03*
D29*
X640909Y124221D02*
D03*
X616500D02*
D03*
X640909Y-6095D02*
D03*
X616500D02*
D03*
X458079D02*
D03*
X433669D02*
D03*
X458079Y124221D02*
D03*
X433669D02*
D03*
X275244Y-6095D02*
D03*
X250835D02*
D03*
X275244Y124221D02*
D03*
X250835D02*
D03*
X92409Y-6095D02*
D03*
X68000D02*
D03*
X92409Y124221D02*
D03*
X68000D02*
D03*
D30*
X343500Y44500D02*
D03*
X406000Y94000D02*
D03*
X401500Y80500D02*
D03*
X394000D02*
D03*
X339500Y62500D02*
D03*
X342000Y84000D02*
D03*
X326000D02*
D03*
X484741Y80909D02*
D03*
X309500Y54000D02*
D03*
X113000Y88000D02*
D03*
X171500Y83500D02*
D03*
X248866Y88587D02*
D03*
X308056Y68373D02*
D03*
X528500Y88500D02*
D03*
X393000Y55500D02*
D03*
X374943Y46943D02*
D03*
X374500Y55000D02*
D03*
X581500Y41000D02*
D03*
X484460D02*
D03*
X478000D02*
D03*
X274457Y38000D02*
D03*
X215500Y39500D02*
D03*
X69181Y37606D02*
D03*
X565500Y81000D02*
D03*
X161000Y22500D02*
D03*
X164500Y88500D02*
D03*
X242961Y44299D02*
D03*
X122000Y40000D02*
D03*
X98709Y38394D02*
D03*
X115000Y31500D02*
D03*
X210000Y33500D02*
D03*
X247685Y30913D02*
D03*
X248472Y35638D02*
D03*
X649571Y83276D02*
D03*
X646028Y33669D02*
D03*
X62882Y32882D02*
D03*
X63669Y84063D02*
D03*
X147500Y31000D02*
D03*
X477500Y30500D02*
D03*
X618469Y87606D02*
D03*
X566000Y31000D02*
D03*
X596500Y30500D02*
D03*
X512000D02*
D03*
X378500Y66000D02*
D03*
X376000Y88000D02*
D03*
X371500Y30500D02*
D03*
X332500D02*
D03*
X318000Y88500D02*
D03*
X326000Y94500D02*
D03*
X337000Y77000D02*
D03*
X337500Y53500D02*
D03*
X338444Y70000D02*
D03*
X324213Y71500D02*
D03*
X640516Y38394D02*
D03*
X612563Y38787D02*
D03*
X575000Y88000D02*
D03*
X573500Y67000D02*
D03*
X580707Y84824D02*
D03*
X479000Y89000D02*
D03*
X434188Y37481D02*
D03*
X477500Y65500D02*
D03*
X205000Y88000D02*
D03*
X205500Y62000D02*
D03*
X214500Y71000D02*
D03*
X113500Y63000D02*
D03*
X123000Y71500D02*
D03*
D31*
X607445Y45087D02*
D03*
D32*
X507000Y44500D02*
D03*
X226500Y55000D02*
D03*
X143000Y44500D02*
D03*
X133500Y54500D02*
D03*
X373000Y77500D02*
D03*
X356000Y76500D02*
D03*
X497500Y55500D02*
D03*
X24000Y59043D02*
D03*
X13914Y59500D02*
D03*
X682000Y58000D02*
D03*
X692586Y59000D02*
D03*
X592500Y55500D02*
D03*
M02*
