G04*
G04 #@! TF.GenerationSoftware,Altium Limited,Altium Designer,24.10.1 (45)*
G04*
G04 Layer_Color=2752767*
%FSLAX25Y25*%
%MOIN*%
G70*
G04*
G04 #@! TF.SameCoordinates,C14CE507-BBC2-466D-ADCE-259A0BF978C6*
G04*
G04*
G04 #@! TF.FilePolarity,Positive*
G04*
G01*
G75*
%ADD45C,0.00500*%
%ADD46C,0.00667*%
D45*
X549500Y58500D02*
X547500Y62500D01*
X551500D01*
X549500Y58500D01*
X539500D02*
X537500Y62500D01*
X541500D01*
X539500Y58500D01*
X398500Y35000D02*
X396500Y39000D01*
X400500D01*
X398500Y35000D01*
X388500D02*
X386500Y39000D01*
X390500D01*
X388500Y35000D01*
X320500D02*
X318500Y39000D01*
X322500D01*
X320500Y35000D01*
X310500D02*
X308500Y39000D01*
X312500D01*
X310500Y35000D01*
X171000Y67000D02*
X169000Y71000D01*
X173000D01*
X171000Y67000D01*
X191000D02*
X189000Y71000D01*
X193000D01*
X191000Y67000D01*
X181000D02*
X179000Y71000D01*
X183000D01*
X181000Y67000D01*
X161000D02*
X159000Y71000D01*
X163000D01*
X161000Y67000D01*
Y57000D02*
X159000Y61000D01*
X163000D01*
X161000Y57000D01*
X171000D02*
X169000Y61000D01*
X173000D01*
X171000Y57000D01*
X640909Y122221D02*
X641909Y123221D01*
X642909D01*
X641909Y124221D01*
X642909Y125221D01*
X641909D01*
X640909Y126221D01*
X639909Y125221D01*
X638909D01*
X639909Y124221D01*
X638909Y123221D01*
X639909D01*
X640909Y122221D01*
X616500D02*
X617500Y123221D01*
X618500D01*
X617500Y124221D01*
X618500Y125221D01*
X617500D01*
X616500Y126221D01*
X615500Y125221D01*
X614500D01*
X615500Y124221D01*
X614500Y123221D01*
X615500D01*
X616500Y122221D01*
X640909Y-8095D02*
X641909Y-7095D01*
X642909D01*
X641909Y-6095D01*
X642909Y-5094D01*
X641909D01*
X640909Y-4095D01*
X639909Y-5094D01*
X638909D01*
X639909Y-6095D01*
X638909Y-7095D01*
X639909D01*
X640909Y-8095D01*
X616500D02*
X617500Y-7095D01*
X618500D01*
X617500Y-6095D01*
X618500Y-5094D01*
X617500D01*
X616500Y-4095D01*
X615500Y-5094D01*
X614500D01*
X615500Y-6095D01*
X614500Y-7095D01*
X615500D01*
X616500Y-8095D01*
X458079D02*
X459079Y-7095D01*
X460079D01*
X459079Y-6095D01*
X460079Y-5094D01*
X459079D01*
X458079Y-4095D01*
X457079Y-5094D01*
X456079D01*
X457079Y-6095D01*
X456079Y-7095D01*
X457079D01*
X458079Y-8095D01*
X433669D02*
X434669Y-7095D01*
X435669D01*
X434669Y-6095D01*
X435669Y-5094D01*
X434669D01*
X433669Y-4095D01*
X432669Y-5094D01*
X431669D01*
X432669Y-6095D01*
X431669Y-7095D01*
X432669D01*
X433669Y-8095D01*
X458079Y122221D02*
X459079Y123221D01*
X460079D01*
X459079Y124221D01*
X460079Y125221D01*
X459079D01*
X458079Y126221D01*
X457079Y125221D01*
X456079D01*
X457079Y124221D01*
X456079Y123221D01*
X457079D01*
X458079Y122221D01*
X433669D02*
X434669Y123221D01*
X435669D01*
X434669Y124221D01*
X435669Y125221D01*
X434669D01*
X433669Y126221D01*
X432669Y125221D01*
X431669D01*
X432669Y124221D01*
X431669Y123221D01*
X432669D01*
X433669Y122221D01*
X275244Y-8095D02*
X276244Y-7095D01*
X277244D01*
X276244Y-6095D01*
X277244Y-5094D01*
X276244D01*
X275244Y-4095D01*
X274244Y-5094D01*
X273244D01*
X274244Y-6095D01*
X273244Y-7095D01*
X274244D01*
X275244Y-8095D01*
X250835D02*
X251835Y-7095D01*
X252835D01*
X251835Y-6095D01*
X252835Y-5094D01*
X251835D01*
X250835Y-4095D01*
X249835Y-5094D01*
X248835D01*
X249835Y-6095D01*
X248835Y-7095D01*
X249835D01*
X250835Y-8095D01*
X275244Y122221D02*
X276244Y123221D01*
X277244D01*
X276244Y124221D01*
X277244Y125221D01*
X276244D01*
X275244Y126221D01*
X274244Y125221D01*
X273244D01*
X274244Y124221D01*
X273244Y123221D01*
X274244D01*
X275244Y122221D01*
X250835D02*
X251835Y123221D01*
X252835D01*
X251835Y124221D01*
X252835Y125221D01*
X251835D01*
X250835Y126221D01*
X249835Y125221D01*
X248835D01*
X249835Y124221D01*
X248835Y123221D01*
X249835D01*
X250835Y122221D01*
X92409Y-8095D02*
X93409Y-7095D01*
X94409D01*
X93409Y-6095D01*
X94409Y-5094D01*
X93409D01*
X92409Y-4095D01*
X91409Y-5094D01*
X90409D01*
X91409Y-6095D01*
X90409Y-7095D01*
X91409D01*
X92409Y-8095D01*
X68000D02*
X69000Y-7095D01*
X70000D01*
X69000Y-6095D01*
X70000Y-5094D01*
X69000D01*
X68000Y-4095D01*
X67000Y-5094D01*
X66000D01*
X67000Y-6095D01*
X66000Y-7095D01*
X67000D01*
X68000Y-8095D01*
X92409Y122221D02*
X93409Y123221D01*
X94409D01*
X93409Y124221D01*
X94409Y125221D01*
X93409D01*
X92409Y126221D01*
X91409Y125221D01*
X90409D01*
X91409Y124221D01*
X90409Y123221D01*
X91409D01*
X92409Y122221D01*
X68000D02*
X69000Y123221D01*
X70000D01*
X69000Y124221D01*
X70000Y125221D01*
X69000D01*
X68000Y126221D01*
X67000Y125221D01*
X66000D01*
X67000Y124221D01*
X66000Y123221D01*
X67000D01*
X68000Y122221D01*
X341500Y42500D02*
Y46500D01*
X345500D01*
Y42500D01*
X341500D01*
X605445Y43087D02*
Y47087D01*
X609445D01*
Y43087D01*
X605445D01*
X506000Y43500D02*
Y42500D01*
X508000D01*
Y43500D01*
X509000D01*
Y45500D01*
X508000D01*
Y46500D01*
X506000D01*
Y45500D01*
X505000D01*
Y43500D01*
X506000D01*
X404000Y92000D02*
Y96000D01*
X408000D01*
Y92000D01*
X404000D01*
X399500Y78500D02*
Y82500D01*
X403500D01*
Y78500D01*
X399500D01*
X392000D02*
Y82500D01*
X396000D01*
Y78500D01*
X392000D01*
X337500Y60500D02*
Y64500D01*
X341500D01*
Y60500D01*
X337500D01*
X340000Y82000D02*
Y86000D01*
X344000D01*
Y82000D01*
X340000D01*
X324000D02*
Y86000D01*
X328000D01*
Y82000D01*
X324000D01*
X225500Y54000D02*
Y53000D01*
X227500D01*
Y54000D01*
X228500D01*
Y56000D01*
X227500D01*
Y57000D01*
X225500D01*
Y56000D01*
X224500D01*
Y54000D01*
X225500D01*
X142000Y43500D02*
Y42500D01*
X144000D01*
Y43500D01*
X145000D01*
Y45500D01*
X144000D01*
Y46500D01*
X142000D01*
Y45500D01*
X141000D01*
Y43500D01*
X142000D01*
X132500Y53500D02*
Y52500D01*
X134500D01*
Y53500D01*
X135500D01*
Y55500D01*
X134500D01*
Y56500D01*
X132500D01*
Y55500D01*
X131500D01*
Y53500D01*
X132500D01*
X482741Y78909D02*
Y82909D01*
X486741D01*
Y78909D01*
X482741D01*
X307500Y52000D02*
Y56000D01*
X311500D01*
Y52000D01*
X307500D01*
X111000Y86000D02*
Y90000D01*
X115000D01*
Y86000D01*
X111000D01*
X169500Y81500D02*
Y85500D01*
X173500D01*
Y81500D01*
X169500D01*
X246866Y86587D02*
Y90587D01*
X250866D01*
Y86587D01*
X246866D01*
X306056Y66373D02*
Y70373D01*
X310056D01*
Y66373D01*
X306056D01*
X526500Y86500D02*
Y90500D01*
X530500D01*
Y86500D01*
X526500D01*
X391000Y53500D02*
Y57500D01*
X395000D01*
Y53500D01*
X391000D01*
X372943Y44943D02*
Y48943D01*
X376943D01*
Y44943D01*
X372943D01*
X372500Y53000D02*
Y57000D01*
X376500D01*
Y53000D01*
X372500D01*
X579500Y39000D02*
Y43000D01*
X583500D01*
Y39000D01*
X579500D01*
X482460D02*
Y43000D01*
X486460D01*
Y39000D01*
X482460D01*
X476000D02*
Y43000D01*
X480000D01*
Y39000D01*
X476000D01*
X272457Y36000D02*
Y40000D01*
X276457D01*
Y36000D01*
X272457D01*
X213500Y37500D02*
Y41500D01*
X217500D01*
Y37500D01*
X213500D01*
X67181Y35606D02*
Y39606D01*
X71181D01*
Y35606D01*
X67181D01*
X563500Y79000D02*
Y83000D01*
X567500D01*
Y79000D01*
X563500D01*
X159000Y20500D02*
Y24500D01*
X163000D01*
Y20500D01*
X159000D01*
X162500Y86500D02*
Y90500D01*
X166500D01*
Y86500D01*
X162500D01*
X240961Y42299D02*
Y46299D01*
X244961D01*
Y42299D01*
X240961D01*
X120000Y38000D02*
Y42000D01*
X124000D01*
Y38000D01*
X120000D01*
X96709Y36394D02*
Y40394D01*
X100709D01*
Y36394D01*
X96709D01*
X113000Y29500D02*
Y33500D01*
X117000D01*
Y29500D01*
X113000D01*
X208000Y31500D02*
Y35500D01*
X212000D01*
Y31500D01*
X208000D01*
X245685Y28913D02*
Y32913D01*
X249685D01*
Y28913D01*
X245685D01*
X246472Y33638D02*
Y37638D01*
X250472D01*
Y33638D01*
X246472D01*
X647571Y81276D02*
Y85276D01*
X651571D01*
Y81276D01*
X647571D01*
X644028Y31669D02*
Y35669D01*
X648028D01*
Y31669D01*
X644028D01*
X60882Y30882D02*
Y34882D01*
X64882D01*
Y30882D01*
X60882D01*
X61669Y82063D02*
Y86063D01*
X65669D01*
Y82063D01*
X61669D01*
X145500Y29000D02*
Y33000D01*
X149500D01*
Y29000D01*
X145500D01*
X475500Y28500D02*
Y32500D01*
X479500D01*
Y28500D01*
X475500D01*
X616468Y85606D02*
Y89606D01*
X620469D01*
Y85606D01*
X616468D01*
X564000Y29000D02*
Y33000D01*
X568000D01*
Y29000D01*
X564000D01*
X594500Y28500D02*
Y32500D01*
X598500D01*
Y28500D01*
X594500D01*
X510000D02*
Y32500D01*
X514000D01*
Y28500D01*
X510000D01*
X376500Y64000D02*
Y68000D01*
X380500D01*
Y64000D01*
X376500D01*
X372000Y76500D02*
Y75500D01*
X374000D01*
Y76500D01*
X375000D01*
Y78500D01*
X374000D01*
Y79500D01*
X372000D01*
Y78500D01*
X371000D01*
Y76500D01*
X372000D01*
X374000Y86000D02*
Y90000D01*
X378000D01*
Y86000D01*
X374000D01*
X369500Y28500D02*
Y32500D01*
X373500D01*
Y28500D01*
X369500D01*
X330500D02*
Y32500D01*
X334500D01*
Y28500D01*
X330500D01*
X355000Y75500D02*
Y74500D01*
X357000D01*
Y75500D01*
X358000D01*
Y77500D01*
X357000D01*
Y78500D01*
X355000D01*
Y77500D01*
X354000D01*
Y75500D01*
X355000D01*
X316000Y86500D02*
Y90500D01*
X320000D01*
Y86500D01*
X316000D01*
X324000Y92500D02*
Y96500D01*
X328000D01*
Y92500D01*
X324000D01*
X335000Y75000D02*
Y79000D01*
X339000D01*
Y75000D01*
X335000D01*
X335500Y51500D02*
Y55500D01*
X339500D01*
Y51500D01*
X335500D01*
X336444Y68000D02*
Y72000D01*
X340444D01*
Y68000D01*
X336444D01*
X322213Y69500D02*
Y73500D01*
X326213D01*
Y69500D01*
X322213D01*
X638516Y36394D02*
Y40394D01*
X642516D01*
Y36394D01*
X638516D01*
X610563Y36787D02*
Y40787D01*
X614563D01*
Y36787D01*
X610563D01*
X573000Y86000D02*
Y90000D01*
X577000D01*
Y86000D01*
X573000D01*
X571500Y65000D02*
Y69000D01*
X575500D01*
Y65000D01*
X571500D01*
X578707Y82824D02*
Y86824D01*
X582707D01*
Y82824D01*
X578707D01*
X477000Y87000D02*
Y91000D01*
X481000D01*
Y87000D01*
X477000D01*
X432188Y35481D02*
Y39481D01*
X436188D01*
Y35481D01*
X432188D01*
X475500Y63500D02*
Y67500D01*
X479500D01*
Y63500D01*
X475500D01*
X203000Y86000D02*
Y90000D01*
X207000D01*
Y86000D01*
X203000D01*
X203500Y60000D02*
Y64000D01*
X207500D01*
Y60000D01*
X203500D01*
X212500Y69000D02*
Y73000D01*
X216500D01*
Y69000D01*
X212500D01*
X111500Y61000D02*
Y65000D01*
X115500D01*
Y61000D01*
X111500D01*
X121000Y69500D02*
Y73500D01*
X125000D01*
Y69500D01*
X121000D01*
D46*
X499500Y55500D02*
G03*
X499500Y55500I-2000J0D01*
G01*
X26000Y59043D02*
G03*
X26000Y59043I-2000J0D01*
G01*
X15914Y59500D02*
G03*
X15914Y59500I-2000J0D01*
G01*
X684000Y58000D02*
G03*
X684000Y58000I-2000J0D01*
G01*
X694586Y59000D02*
G03*
X694586Y59000I-2000J0D01*
G01*
X594500Y55500D02*
G03*
X594500Y55500I-2000J0D01*
G01*
M02*
